<svg width="65" height="65" viewBox="0 0 65 65" fill="none" xmlns="http://www.w3.org/2000/svg">
<path d="M0 0H64.8386V35.0889L61.6293 40.116L64.8386 44.5901V65H0V31.9219L2.00583 29.6094L0 27.3975V0Z" fill="#016FD0"/>
<path d="M12.5864 45.2938V35.0889H23.3647L24.5211 36.6001L25.7158 35.0889H64.8384V44.59C64.8384 44.59 63.8153 45.2836 62.632 45.2938H40.969L39.6652 43.6852V45.2938H35.3928V42.5478C35.3928 42.5478 34.8092 42.9311 33.5474 42.9311H32.0932V45.2938H25.6244L24.4696 43.7501L23.2971 45.2938H12.5864Z" fill="white"/>
<path d="M0 27.3974L2.43055 21.7168H6.63394L8.01331 24.8988V21.7168H13.2385L14.0596 24.0167L14.8557 21.7168H38.3114V22.873C38.3114 22.873 39.5445 21.7168 41.5709 21.7168L49.1814 21.7435L50.537 24.8838V21.7168H54.9097L56.1132 23.5207V21.7168H60.5261V31.9217H56.1132L54.9599 30.112V31.9217H48.5354L47.8893 30.3131H46.1622L45.5266 31.9217H41.1698C39.4261 31.9217 38.3114 30.7891 38.3114 30.7891V31.9217H31.7423L30.4385 30.3131V31.9217H6.01124L5.36561 30.3131H3.64399L3.00293 31.9217H0V27.3974Z" fill="white"/>
<path d="M3.29098 22.9746L0.0126953 30.6158H2.14703L2.75191 29.0856H6.26839L6.87014 30.6158H9.05149L5.77633 22.9746H3.29098ZM4.50388 24.7529L5.57575 27.4267H3.42888L4.50388 24.7529Z" fill="#016FD0"/>
<path d="M9.27686 30.6148V22.9736L12.3099 22.9849L14.074 27.9115L15.7958 22.9736H18.8046V30.6148H16.899V24.9845L14.8791 30.6148H13.2079L11.1824 24.9845V30.6148H9.27686Z" fill="#016FD0"/>
<path d="M20.1084 30.6148V22.9736H26.3265V24.6828H22.034V25.9899H26.2262V27.5985H22.034V28.9558H26.3265V30.6148H20.1084Z" fill="#016FD0"/>
<path d="M27.4297 22.9746V30.6158H29.3352V27.9011H30.1376L32.4223 30.6158H34.751L32.2437 27.8006C33.2727 27.7136 34.3341 26.8282 34.3341 25.4536C34.3341 23.8456 33.0752 22.9746 31.6701 22.9746H27.4297ZM29.3352 24.6838H31.5134C32.036 24.6838 32.4161 25.0936 32.4161 25.4881C32.4161 25.9958 31.9236 26.2925 31.5417 26.2925H29.3352V24.6838Z" fill="#016FD0"/>
<path d="M37.058 30.6148H35.1123V22.9736H37.058V30.6148Z" fill="#016FD0"/>
<path d="M41.6711 30.6148H41.2511C39.2191 30.6148 37.9854 29.0099 37.9854 26.8256C37.9854 24.5874 39.2053 22.9736 41.7714 22.9736H43.8775V24.7834H41.6944C40.6527 24.7834 39.916 25.5983 39.916 26.8445C39.916 28.3243 40.7584 28.9458 41.972 28.9458H42.4734L41.6711 30.6148Z" fill="#016FD0"/>
<path d="M45.8178 22.9746L42.5396 30.6158H44.6739L45.2788 29.0856H48.7952L49.397 30.6158H51.5783L48.3032 22.9746H45.8178ZM47.0307 24.7529L48.1026 27.4267H45.9557L47.0307 24.7529Z" fill="#016FD0"/>
<path d="M51.8008 30.6148V22.9736H54.2235L57.3168 27.7745V22.9736H59.2224V30.6148H56.8781L53.7063 25.6883V30.6148H51.8008Z" fill="#016FD0"/>
<path d="M13.8901 43.9869V36.3457H20.1082V38.0549H15.8157V39.362H20.0079V40.9706H15.8157V42.3279H20.1082V43.9869H13.8901Z" fill="#016FD0"/>
<path d="M44.3589 43.9869V36.3457H50.577V38.0549H46.2845V39.362H50.4566V40.9706H46.2845V42.3279H50.577V43.9869H44.3589Z" fill="#016FD0"/>
<path d="M20.3499 43.9869L23.3775 40.2134L20.2778 36.3457H22.6786L24.5246 38.7367L26.3768 36.3457H28.6835L25.6246 40.1663L28.6578 43.9869H26.2574L24.465 41.6335L22.7162 43.9869H20.3499Z" fill="#016FD0"/>
<path d="M28.8838 36.3467V43.9878H30.8395V41.5748H32.8453C34.5425 41.5748 35.829 40.6722 35.829 38.9168C35.829 37.4626 34.82 36.3467 33.0929 36.3467H28.8838ZM30.8395 38.0747H32.9519C33.5002 38.0747 33.8921 38.4116 33.8921 38.9545C33.8921 39.4644 33.5022 39.8342 32.9456 39.8342H30.8395V38.0747Z" fill="#016FD0"/>
<path d="M36.6562 36.3457V43.9869H38.5618V41.2722H39.3641L41.6489 43.9869H43.9775L41.4703 41.1717C42.4993 41.0846 43.5607 40.1993 43.5607 38.8247C43.5607 37.2167 42.3018 36.3457 40.8967 36.3457H36.6562ZM38.5618 38.0549H40.74C41.2625 38.0549 41.6426 38.4647 41.6426 38.8592C41.6426 39.3669 41.1501 39.6636 40.7682 39.6636H38.5618V38.0549Z" fill="#016FD0"/>
<path d="M51.4597 43.9869V42.3279H55.2733C55.8376 42.3279 56.0819 42.0222 56.0819 41.687C56.0819 41.3657 55.8384 41.041 55.2733 41.041H53.55C52.052 41.041 51.2178 40.1261 51.2178 38.7524C51.2178 37.5272 51.9818 36.3457 54.2077 36.3457H57.9185L57.1162 38.065H53.9068C53.2934 38.065 53.1045 38.3877 53.1045 38.6959C53.1045 39.0126 53.3379 39.362 53.8066 39.362H55.6118C57.2817 39.362 58.0063 40.3115 58.0063 41.555C58.0063 42.8919 57.1988 43.9869 55.5209 43.9869H51.4597Z" fill="#016FD0"/>
<path d="M58.4534 43.9869V42.3279H62.267C62.8312 42.3279 63.0756 42.0222 63.0756 41.687C63.0756 41.3657 62.832 41.041 62.267 41.041H60.5437C59.0457 41.041 58.2114 40.1261 58.2114 38.7524C58.2114 37.5272 58.9754 36.3457 61.2014 36.3457H64.9122L64.1098 38.065H60.9005C60.287 38.065 60.0982 38.3877 60.0982 38.6959C60.0982 39.0126 60.3315 39.362 60.8002 39.362H62.6055C64.2753 39.362 64.9999 40.3115 64.9999 41.555C64.9999 42.8919 64.1925 43.9869 62.5145 43.9869H58.4534Z" fill="#016FD0"/>
</svg>
