<?xml version="1.0" encoding="utf-8"?>
<!-- Generator: Adobe Illustrator 25.0.0, SVG Export Plug-In . SVG Version: 6.00 Build 0)  -->
<svg version="1.1" id="Layer_1" xmlns="http://www.w3.org/2000/svg" xmlns:xlink="http://www.w3.org/1999/xlink" x="0px" y="0px"
	 viewBox="0 0 141.2 141.2" style="enable-background:new 0 0 141.2 141.2;" xml:space="preserve">
<style type="text/css">
	.st0{fill:none;stroke:#000000;stroke-width:2.1341;stroke-miterlimit:10;}
</style>
<g>
	<path d="M43.5,63.9c0.3,1.6,1.6,2.4,3.2,2.4c2,0,3-0.8,3-2.4c0-1.4-0.7-2.2-3.2-2.9c-3.6-1-4.9-2.2-4.9-4.5c0-2.6,2.1-4.2,4.9-4.2
		c3.8,0,5,2.2,5.2,3.9h-2.2c-0.3-1.1-0.9-2.1-3-2.1c-1.9,0-2.6,1-2.6,2.1c0,1.3,0.7,2,3.3,2.7c3.8,1,4.9,2.6,4.9,4.7
		c0,2.9-2.1,4.4-5.4,4.4c-3.2,0-5.1-1.8-5.3-4.2H43.5z M45.9,70.2V50.9h1.4v19.3H45.9z"/>
</g>
<g>
	<path class="st0" d="M35,110.2c3.6-4.3,1.8-7.7,1-9.2c-0.2-0.5,0-1,0.4-1.2l1.4-0.6c2.2-1,1.7-0.7,3.2,2.5c3,5.9,9.2,2.3,9.2,2.3
		l-0.2-0.6l-4.5-10.8c-0.3-0.7-0.7-1.3-1.3-1.6l-1.7-0.7c-0.6-0.2-1.3-0.2-1.9,0l-12,4.8c-0.5,0.2-0.8,0.5-1.1,0.9l-1,1.6
		c-0.4,0.5-0.7,1.1-0.9,1.7l-1.3,3.6c-0.4,1-0.4,2-0.3,3l0.2,0.8c0.1,0.6-0.2,1.2-0.7,1.4l-10.7,4.8"/>
	<path class="st0" d="M55.3,95.6l-5.3,2.1c-1.5,0.6-2.5-0.5-3.1-2l0,0c-0.6-1.5-0.2-3.1,1.3-3.7l4.9-2c1.5-0.6,3.3,0.1,3.9,1.7v0
		C57.6,93.2,56.8,95,55.3,95.6z"/>
	<path class="st0" d="M58.6,101.2l-6.3,2.5c-1.7,0.7-2.5-0.6-3.1-2.3h0c-0.7-1.7-0.9-3.1,0.8-3.7l6.3-2.5c1.7-0.7,3.5,0.2,4.2,1.8
		l0,0C61.1,98.6,60.3,100.5,58.6,101.2z"/>
	<path class="st0" d="M60.2,107.5l-10.5,4.1c-1.7,0.7-3.5-0.2-4.2-1.8h0c-0.7-1.7,0.2-3.5,1.8-4.2l10.5-4.1c1.7-0.7,3.5,0.2,4.2,1.8
		v0C62.6,105,61.8,106.8,60.2,107.5z"/>
	<path class="st0" d="M18.1,125.8c0,0,9.3-3.9,12-5.1c2.7-1.1,3.1,4,7.6,2.1s18.6-7.6,18.6-7.6"/>
	<path class="st0" d="M61.8,113.1l-9.6,3.8c-1.4,0.5-2.9-0.1-3.4-1.5l-0.1-0.2c-0.5-1.4,0.1-2.9,1.5-3.4l9.6-3.8
		c1.4-0.5,2.9,0.1,3.4,1.5l0.1,0.2C63.8,111,63.2,112.5,61.8,113.1z"/>
	<path class="st0" d="M49.8,74.6l-0.2,14.9c0,0.7,0.1,1.2,0.1,1.9"/>
	<path class="st0" d="M42.7,90.1c0-0.1,0-0.3,0-0.4l0-15.7"/>
	<circle class="st0" cx="47" cy="60.1" r="14.8"/>
</g>
<g>
	<path d="M86.3,40.1c0.3,2,1.8,3.1,3.8,3.2c2.5,0.1,3.8-0.8,3.9-2.8c0.1-1.7-0.7-2.8-3.8-3.8c-4.4-1.5-5.9-3.1-5.8-5.9
		c0.2-3.2,2.9-5,6.4-4.8c4.7,0.2,6.1,3.1,6.2,5.1L94.1,31c-0.3-1.4-1-2.7-3.5-2.8c-2.4-0.1-3.3,1.1-3.4,2.5
		c-0.1,1.6,0.7,2.5,3.9,3.5c4.6,1.5,5.9,3.5,5.8,6.1c-0.2,3.5-2.9,5.3-7,5.1c-4-0.2-6.2-2.5-6.4-5.5L86.3,40.1z M88.9,48l1.2-24
		l1.7,0.1l-1.2,24L88.9,48z"/>
</g>
<g>
	<path class="st0" d="M100.7,99.8c-4.3-5.7-1.6-9.8-0.6-11.7c0.3-0.5,0.1-1.2-0.5-1.5l-1.7-0.9c-2.7-1.4-2.1-1-4.2,2.9
		C89.5,95.7,82,90.7,82,90.7l0.3-0.7l6.4-13.2c0.4-0.8,0.9-1.6,1.8-1.9l2.2-0.7c0.8-0.3,1.6-0.2,2.3,0.1l14.7,6.9
		c0.6,0.2,1,0.7,1.3,1.2l1.2,2c0.4,0.7,0.7,1.5,1,2.2l1.4,4.6c0.4,1.2,0.4,2.5,0.1,3.8l-0.3,1c-0.2,0.7,0.2,1.5,0.8,1.9l13,6.9"/>
	<path class="st0" d="M76.3,79.9l6.6,3.1c1.9,0.9,3.2-0.4,4.1-2.3v0c0.9-1.9,0.5-3.9-1.4-4.8l-6.1-2.8c-1.9-0.9-4.1-0.1-5,1.8v0
		C73.6,76.8,74.4,79,76.3,79.9z"/>
	<path class="st0" d="M71.6,86.7l6.4,3c2.1,1,4.5,0.1,5.5-2l0.6-1.3c0.6-1.3,0-2.9-1.3-3.5l-7.8-3.6c-2-0.9-4.5-0.1-5.4,2v0
		C68.7,83.3,69.6,85.7,71.6,86.7z"/>
	<path class="st0" d="M69.2,94.5l12.8,6c2,0.9,4.5,0.1,5.4-2v0c0.9-2,0.1-4.5-2-5.4l-12.8-6c-2-0.9-4.5-0.1-5.4,2l0,0
		C66.3,91.1,67.2,93.6,69.2,94.5z"/>
	<path class="st0" d="M120.7,120.6c0,0-11.4-5.6-14.7-7.2c-3.3-1.6-4.1,4.8-9.7,2.1c-5.6-2.7-22.8-11-22.8-11"/>
	<path class="st0" d="M66.8,101.4l11.8,5.5c1.7,0.8,3.6,0,4.4-1.6l0.1-0.3c0.8-1.7,0-3.6-1.6-4.4l-11.8-5.5c-1.7-0.8-3.6,0-4.4,1.6
		L65.2,97C64.4,98.6,65.1,100.6,66.8,101.4z"/>
	<path class="st0" d="M84.6,53.6l-0.8,19.2c0,0.9-0.2,1.5-0.2,2.4"/>
	<path class="st0" d="M92.5,73.9c0-0.2,0.1-0.3,0.1-0.5l1.1-19.7"/>
	<circle class="st0" cx="90" cy="35.6" r="18.7"/>
</g>
</svg>
