<svg width="198" height="42" viewBox="0 0 198 42" fill="none" xmlns="http://www.w3.org/2000/svg">
<g clip-path="url(#clip0)">
<path d="M40.7192 25.5592C37.9582 36.5834 26.7416 43.2926 15.6659 40.5434C4.59467 37.7949 -2.1451 26.6286 0.617215 15.6051C3.37694 4.57957 14.5935 -2.13025 25.666 0.618245C36.7411 3.36674 43.4802 14.5343 40.7192 25.5592Z" fill="#F7931A"/>
<path d="M29.7827 17.6492C30.1942 14.911 28.0998 13.439 25.2361 12.457L26.1651 8.74774L23.8969 8.18505L22.9925 11.7965C22.3963 11.6486 21.7839 11.5091 21.1753 11.3708L22.0862 7.73554L19.8194 7.17285L18.8898 10.8808C18.3962 10.7689 17.9117 10.6583 17.4414 10.5419L17.444 10.5303L14.3161 9.75286L13.7127 12.1644C13.7127 12.1644 15.3955 12.5483 15.36 12.5721C16.2786 12.8004 16.4446 13.4055 16.4169 13.8852L15.3587 18.1109C15.422 18.127 15.5041 18.1501 15.5945 18.1861C15.5189 18.1675 15.4382 18.1469 15.3549 18.127L13.8716 24.0464C13.7592 24.3243 13.4743 24.741 12.8322 24.5828C12.8548 24.6156 11.1836 24.1731 11.1836 24.1731L10.0576 26.7576L13.0092 27.4901C13.5583 27.6271 14.0964 27.7705 14.6261 27.9055L13.6875 31.6572L15.953 32.2199L16.8826 28.5081C17.5015 28.6753 18.1023 28.8296 18.6902 28.975L17.7638 32.6694L20.0319 33.2321L20.9706 29.4875C24.8382 30.2161 27.7465 29.9222 28.9707 26.44C29.9571 23.6362 28.9216 22.0188 26.8866 20.9642C28.3686 20.624 29.4849 19.6536 29.7827 17.6492ZM24.6004 24.8831C23.8995 27.6869 19.1572 26.1711 17.6197 25.7911L18.8652 20.8208C20.4027 21.2028 25.333 21.959 24.6004 24.8831ZM25.302 17.6086C24.6625 20.1591 20.7154 18.8633 19.435 18.5456L20.5642 14.0377C21.8446 14.3553 25.968 14.9482 25.302 17.6086Z" fill="white"/>
<path d="M60.5777 12.453C62.254 12.453 63.7024 12.7521 64.9194 13.3392C66.1423 13.9321 67.1514 14.7308 67.9608 15.7353C68.7593 16.7449 69.3536 17.9249 69.7373 19.2773C70.1185 20.6336 70.3097 22.0914 70.3097 23.6522C70.3097 26.0495 69.8685 28.3144 68.9776 30.4494C68.0868 32.5877 66.8781 34.4423 65.3406 36.0242C63.8044 37.6043 61.9905 38.8499 59.8987 39.7701C57.8102 40.691 55.5395 41.1515 53.1015 41.1515C52.7862 41.1515 52.2319 41.1425 51.449 41.1264C50.666 41.1103 49.7661 41.0299 48.7584 40.8942C47.7442 40.7534 46.6718 40.545 45.5393 40.2659C44.4076 39.992 43.3326 39.6081 42.3203 39.1206L51.3721 1.25908L59.4794 0.00830078L56.2384 13.444C56.9322 13.1328 57.6312 12.8916 58.3289 12.7161C59.0272 12.5431 59.7766 12.453 60.5777 12.453ZM53.7772 34.749C54.9981 34.749 56.1486 34.45 57.2294 33.8629C58.3134 33.2751 59.2488 32.4815 60.0324 31.4931C60.816 30.5002 61.4362 29.3819 61.8884 28.1325C62.3406 26.883 62.5693 25.5794 62.5693 24.2232C62.5693 22.557 62.2896 21.2574 61.7321 20.3178C61.1746 19.3822 60.1429 18.9114 58.6448 18.9114C58.1538 18.9114 57.5214 19.0047 56.7372 19.1712C55.9503 19.3481 55.2462 19.7153 54.615 20.2677L51.1641 34.5362C51.3721 34.5728 51.5562 34.6076 51.7132 34.6403C51.8669 34.6757 52.0368 34.7008 52.2061 34.7182C52.385 34.7381 52.5898 34.7484 52.8372 34.7484C53.0847 34.7484 53.3941 34.749 53.7772 34.749Z" fill="#4D4D4D"/>
<path d="M78.7173 40.4265H70.9736L77.5131 13.0336H85.3097L78.7173 40.4265ZM82.4854 9.69601C81.4046 9.69601 80.4247 9.37576 79.5551 8.73398C78.6785 8.09605 78.2444 7.11408 78.2444 5.79063C78.2444 5.06268 78.393 4.37972 78.6876 3.73536C78.9867 3.09229 79.3775 2.53861 79.8672 2.06788C80.3562 1.60101 80.9227 1.22802 81.5661 0.947001C82.2134 0.67048 82.9021 0.532227 83.6359 0.532227C84.7161 0.532227 85.6909 0.852478 86.5636 1.49426C87.4331 2.13927 87.8705 3.12124 87.8705 4.43761C87.8705 5.16814 87.7226 5.85365 87.4254 6.49672C87.1302 7.1398 86.7393 7.69347 86.2497 8.1642C85.7645 8.63172 85.1928 9.00342 84.5507 9.28187C83.9027 9.56289 83.2167 9.69601 82.4854 9.69601Z" fill="#4D4D4D"/>
<path d="M92.0958 6.20879L100.206 4.95801L98.2148 13.0324H106.901L105.332 19.3847H96.6986L94.3988 28.9665C94.1869 29.7652 94.0668 30.5111 94.0332 31.2044C93.9951 31.9008 94.0836 32.4989 94.2929 33.0024C94.5009 33.5072 94.8749 33.8963 95.4176 34.1715C95.9576 34.4513 96.7309 34.5921 97.7451 34.5921C98.5804 34.5921 99.3944 34.513 100.181 34.3561C100.964 34.2017 101.756 33.987 102.558 33.7059L103.136 39.6454C102.089 40.0273 100.956 40.356 99.7354 40.6325C98.5126 40.9129 97.0649 41.0479 95.3917 41.0479C92.986 41.0479 91.121 40.6923 89.7922 39.9843C88.4653 39.2711 87.5273 38.2968 86.9659 37.0634C86.4123 35.8345 86.1649 34.4178 86.234 32.8217C86.3057 31.2218 86.5479 29.5401 86.9659 27.7691L92.0958 6.20879Z" fill="#4D4D4D"/>
<path d="M106.56 29.4878C106.56 27.1284 106.944 24.9034 107.711 22.8205C108.476 20.7356 109.579 18.9125 111.01 17.3479C112.435 15.791 114.173 14.5576 116.217 13.6522C118.252 12.7519 120.531 12.2979 123.042 12.2979C124.613 12.2979 126.017 12.4458 127.252 12.7422C128.492 13.0413 129.615 13.4277 130.629 13.9126L127.959 19.9575C127.261 19.6758 126.537 19.4276 125.788 19.2025C125.039 18.9729 124.124 18.8623 123.042 18.8623C120.458 18.8623 118.414 19.7491 116.894 21.5169C115.379 23.286 114.616 25.6673 114.616 28.6544C114.616 30.4248 114.999 31.8563 115.769 32.9514C116.536 34.0466 117.951 34.5913 120.006 34.5913C121.02 34.5913 121.999 34.4858 122.936 34.28C123.881 34.0717 124.715 33.8093 125.449 33.4993L126.027 39.696C125.048 40.0741 123.968 40.4156 122.783 40.7146C121.596 41.0033 120.182 41.1532 118.543 41.1532C116.38 41.1532 114.549 40.8381 113.05 40.2175C111.552 39.5873 110.313 38.7507 109.338 37.6909C108.357 36.6285 107.653 35.388 107.218 33.9643C106.782 32.5418 106.56 31.0473 106.56 29.4878Z" fill="#4D4D4D"/>
<path d="M140.96 41.1532C139.111 41.1532 137.506 40.8728 136.144 40.3178C134.786 39.7628 133.662 38.9841 132.772 37.9745C131.881 36.97 131.215 35.7797 130.758 34.408C130.301 33.0369 130.082 31.5187 130.082 29.855C130.082 27.7683 130.418 25.6821 131.098 23.6018C131.775 21.5169 132.78 19.6437 134.109 17.9788C135.428 16.3113 137.056 14.9479 138.972 13.8849C140.886 12.829 143.088 12.2979 145.56 12.2979C147.375 12.2979 148.972 12.5789 150.352 13.1338C151.726 13.6875 152.858 14.4727 153.753 15.4772C154.638 16.4868 155.311 17.672 155.763 19.0456C156.218 20.4141 156.443 21.9362 156.443 23.6011C156.443 25.6815 156.111 27.7676 155.452 29.8544C154.792 31.9309 153.814 33.8087 152.522 35.4774C151.232 37.1423 149.62 38.505 147.683 39.5635C145.749 40.622 143.506 41.1532 140.96 41.1532ZM144.83 18.863C143.682 18.863 142.667 19.1948 141.798 19.8501C140.926 20.5131 140.193 21.3465 139.603 22.3517C139.006 23.3613 138.564 24.4622 138.264 25.659C137.968 26.8583 137.823 27.9921 137.823 29.0692C137.823 30.8074 138.104 32.1611 138.658 33.1354C139.219 34.1045 140.228 34.5919 141.693 34.5919C142.845 34.5919 143.855 34.2627 144.729 33.6003C145.596 32.9424 146.329 32.1084 146.924 31.1013C147.517 30.0968 147.964 28.9927 148.263 27.794C148.555 26.5985 148.705 25.4583 148.705 24.3831C148.705 22.6494 148.424 21.2925 147.865 20.3195C147.307 19.3504 146.294 18.863 144.83 18.863Z" fill="#4D4D4D"/>
<path d="M164.881 40.4265H157.131L163.671 13.0336H171.471L164.881 40.4265ZM168.644 9.69601C167.564 9.69601 166.584 9.37576 165.716 8.73398C164.844 8.09605 164.406 7.11408 164.406 5.79063C164.406 5.06268 164.556 4.37972 164.852 3.73536C165.147 3.09229 165.54 2.53861 166.03 2.06788C166.516 1.60101 167.088 1.22802 167.73 0.947001C168.374 0.67048 169.062 0.532227 169.794 0.532227C170.876 0.532227 171.854 0.852478 172.725 1.49426C173.597 2.13927 174.037 3.12124 174.037 4.43761C174.037 5.16814 173.88 5.85365 173.588 6.49672C173.295 7.1398 172.902 7.69347 172.414 8.1642C171.923 8.63172 171.358 9.00342 170.715 9.28187C170.066 9.56289 169.379 9.69601 168.644 9.69601Z" fill="#4D4D4D"/>
<path d="M177.052 14.2795C177.64 14.1084 178.296 13.9026 179.01 13.6789C179.726 13.4551 180.527 13.2467 181.421 13.0589C182.305 12.8654 183.303 12.7085 184.401 12.5869C185.498 12.4628 186.749 12.4023 188.139 12.4023C192.223 12.4023 195.038 13.5863 196.592 15.947C198.145 18.3077 198.414 21.5385 197.406 25.6336L193.844 40.4243H186.049L189.502 25.9448C189.712 25.0407 189.878 24.1667 190 23.3127C190.123 22.4664 190.116 21.7205 189.972 21.0748C189.834 20.4369 189.51 19.9147 189.007 19.5102C188.496 19.1122 187.724 18.9122 186.677 18.9122C185.667 18.9122 184.64 19.0202 183.591 19.2286L178.516 40.4236H170.718L177.052 14.2795Z" fill="#4D4D4D"/>
</g>
<defs>
<clipPath id="clip0">
<rect width="198" height="41.1573" fill="white"/>
</clipPath>
</defs>
</svg>
