<?xml version="1.0" encoding="utf-8"?>
<!-- Generator: Adobe Illustrator 25.0.0, SVG Export Plug-In . SVG Version: 6.00 Build 0)  -->
<svg version="1.1" id="Layer_1" xmlns="http://www.w3.org/2000/svg" xmlns:xlink="http://www.w3.org/1999/xlink" x="0px" y="0px"
	 viewBox="0 0 141.2 141.2" style="enable-background:new 0 0 141.2 141.2;" xml:space="preserve">
<g>
	<path d="M13.9,126.5c40.1,0,73.4,0,113.5,0v-26h-22.5v-7.8h-7.6V76.2h3.8v-2.4c-0.1,0-7.1,0-6.9,0V62.1h3.9v-2.4
		c-0.2,0-6.3,0-6.1,0c-0.6-8.8-7.7-17.1-13.2-22.2H82V35h-5.3c-0.3-1.4-1-2.7-2-3.5v-7.8c0-1.7-1-3.3-2.9-3.9v-5h-2.4v5
		c-1.7,0.5-2.9,2.1-2.9,3.9v8c-0.9,0.9-1.5,2-1.8,3.3h-5.2v2.4h3C57,42.6,49.8,50.9,49.2,59.7c-0.2,0-6.2,0-6.1,0v2.4H47v11.7
		c-1.1,0-7,0-6.9,0v2.4H44v16.5h-7.6v7.8H13.9V126.5z M65.4,124v-13.5c0-2.9,2.3-5.2,5.2-5.2c2.9,0,5.2,2.3,5.2,5.2V124H65.4z
		 M124.9,102.9V124h-20.1v-21.1H124.9z M58.7,92.7h-6.1v-7.9c0-1.7,1.4-3.1,3-3.1c1.7,0,3.1,1.4,3.1,3.1L58.7,92.7L58.7,92.7z
		 M73.7,92.7h-6.1v-7.9c0-1.7,1.4-3.1,3.1-3.1c1.7,0,3,1.4,3,3.1L73.7,92.7L73.7,92.7z M88.7,92.7h-6.1v-7.9c0-1.7,1.4-3.1,3.1-3.1
		c1.7,0,3,1.4,3,3.1L88.7,92.7L88.7,92.7z M89.6,59.7h-6.1c-0.3-8.2-4-16-7-21.2C81.7,43.4,88.9,51.4,89.6,59.7z M60.2,59.7
		c0.4-8.5,4.7-16.7,7.8-21.5c-1.1,5.1-2.4,13.1-2.5,21.5H60.2z M70.6,37.7c1,4.9,2.5,13.2,2.6,22H68C68.1,50.9,69.6,42.5,70.6,37.7z
		 M75.7,59.7c-0.1-8.5-1.5-16.6-2.5-21.7c3.1,4.8,7.4,13,7.8,21.7H75.7z M68.9,23.7c0-0.9,0.8-1.7,1.7-1.7c0.9,0,1.7,0.7,1.7,1.7
		v6.6c-0.7-0.1-2.6-0.1-3.3,0.1V23.7z M70.1,32.7c0.2,0.1,3.2-0.6,4.1,2.3h-7C67.7,33.7,68.7,32.7,70.1,32.7z M64.8,38.8
		c-3.1,5.2-6.7,12.8-7,20.9h-6.1C52.3,51.5,59.4,43.6,64.8,38.8z M49.5,62.1h42.3v11.7h-3v-5.2c0-2.7-2.2-5-5-5c-2.7,0-5,2.2-5,5
		v5.2h-3.2v-5.2c0-2.7-2.2-5-5-5c-2.7,0-5,2.2-5,5v5.2h-3.2v-5.2c0-2.7-2.2-5-5-5c-2.7,0-5,2.2-5,5v5.2h-3V62.1z M86.3,73.8h-5.1
		v-5.2c0-1.4,1.1-2.5,2.5-2.5c1.4,0,2.5,1.1,2.5,2.5V73.8z M73.1,73.8h-5.1v-5.2c0-1.4,1.1-2.5,2.5-2.5c1.4,0,2.5,1.1,2.5,2.5V73.8z
		 M60,73.8h-5.1v-5.2c0-1.4,1.1-2.5,2.5-2.5c1.4,0,2.5,1.1,2.5,2.5V73.8z M94.8,76.2v16.5h-3.7v-7.9c0-3-2.5-5.5-5.5-5.5
		c-3,0-5.5,2.5-5.5,5.5v7.9h-4v-7.9c0-3-2.5-5.5-5.5-5.5c-3,0-5.5,2.5-5.5,5.5v7.9h-4v-7.9c0-3-2.5-5.5-5.5-5.5
		c-3,0-5.5,2.5-5.5,5.5v7.9h-3.7V76.2C64,76.2,78.8,76.2,94.8,76.2z M102.4,95.1v2.5H38.8v-2.5H102.4z M38.8,100.1h63.6
		c0,7.8,0,11.8,0,23.9H78.2v-13.5c0-4.2-3.4-7.6-7.6-7.6c-4.2,0-7.6,3.4-7.6,7.6V124H38.8C38.8,111.8,38.8,107.8,38.8,100.1z
		 M16.3,102.9h20.1V124H16.3V102.9z"/>
	<path d="M22.1,105.7h-2.4v6.3h2.4V105.7z"/>
	<path d="M27.5,105.7h-2.4v6.3h2.4V105.7z"/>
	<path d="M33,105.7h-2.4v6.3H33V105.7z"/>
	<path d="M22.1,115h-2.4v6.3h2.4V115z"/>
	<path d="M27.5,115h-2.4v6.3h2.4V115z"/>
	<path d="M33,115h-2.4v6.3H33V115z"/>
	<path d="M110.6,105.7h-2.4v6.3h2.4V105.7z"/>
	<path d="M116.1,105.7h-2.4v6.3h2.4V105.7z"/>
	<path d="M121.6,105.7h-2.4v6.3h2.4V105.7z"/>
	<path d="M110.6,115h-2.4v6.3h2.4V115z"/>
	<path d="M116.1,115h-2.4v6.3h2.4V115z"/>
	<path d="M121.6,115h-2.4v6.3h2.4V115z"/>
	<path d="M44.1,102.1h-2.4v5h2.4V102.1z"/>
	<path d="M49.5,102.1h-2.4v5h2.4V102.1z"/>
	<path d="M44.1,109.2h-2.4v5h2.4V109.2z"/>
	<path d="M49.5,109.2h-2.4v5h2.4V109.2z"/>
	<path d="M44.1,116.4h-2.4v5h2.4V116.4z"/>
	<path d="M49.5,116.4h-2.4v5h2.4V116.4z"/>
	<path d="M55,102.1h-2.4v5H55V102.1z"/>
	<path d="M55,109.2h-2.4v5H55V109.2z"/>
	<path d="M55,116.4h-2.4v5H55V116.4z"/>
	<path d="M60.4,102.1H58v5h2.4V102.1z"/>
	<path d="M60.4,109.2H58v5h2.4V109.2z"/>
	<path d="M60.4,116.4H58v5h2.4V116.4z"/>
	<path d="M83.2,103.1h-2.4v5h2.4V103.1z"/>
	<path d="M88.7,103.1h-2.4v5h2.4V103.1z"/>
	<path d="M83.2,110.3h-2.4v5h2.4V110.3z"/>
	<path d="M88.7,110.3h-2.4v5h2.4V110.3z"/>
	<path d="M83.2,117.5h-2.4v5h2.4V117.5z"/>
	<path d="M88.7,117.5h-2.4v5h2.4V117.5z"/>
	<path d="M94.1,103.1h-2.4v5h2.4V103.1z"/>
	<path d="M94.1,110.3h-2.4v5h2.4V110.3z"/>
	<path d="M94.1,117.5h-2.4v5h2.4V117.5z"/>
	<path d="M99.6,103.1h-2.4v5h2.4V103.1z"/>
	<path d="M99.6,110.3h-2.4v5h2.4V110.3z"/>
	<path d="M99.6,117.5h-2.4v5h2.4V117.5z"/>
	<path d="M25,29.9c-0.8,2.5-0.1,5,1.7,6.8c-0.2,0.6-0.4,1.2-0.4,1.8c0,2.7,2.2,5,5,5h3.9V41h-3.9c-1.4,0-2.5-1.1-2.5-2.5
		c0-1.4,1.1-2.5,2.5-2.5h3.9l0.1-1.1c0.3-2.8,2.7-4.9,5.5-4.9c2.8,0,5.2,2.1,5.5,4.9l0.1,1.1h3.9c1.4,0,2.5,1.1,2.5,2.5
		c0,1.4-1.1,2.5-2.5,2.5h-6.7v2.4h6.7c2.7,0,5-2.2,5-5c0-2.7-2.2-5-5-5h-1.8c-0.9-3.5-4-6-7.7-6c-1.4,0-2.7,0.4-3.8,1
		c-1.2-2-3.3-3.2-5.7-3.2C28.3,25.2,25.8,27.1,25,29.9z M27.3,30.6c0.4-1.4,1.7-2.9,4-2.9c1.6,0,3,0.9,3.8,2.3c-0.9,1-1.6,2.2-2,3.5
		h-1.8c-1.2,0-2.3,0.4-3.1,1.2C27,33.4,26.9,31.8,27.3,30.6z"/>
	<path d="M32.5,18h-2.4v4.8h2.4V18z"/>
	<path d="M20.6,22.9l3.4,3.4l1.7-1.7l-3.4-3.4L20.6,22.9z"/>
	<path d="M22.2,30.7h-4.8v2.4h4.8V30.7z"/>
	<path d="M20.6,40.9l1.7,1.7l3.4-3.4L24,37.5L20.6,40.9z"/>
	<path d="M40.3,21.2l-3.4,3.4l1.7,1.7l3.4-3.4L40.3,21.2z"/>
	<path d="M40.3,41h-2.6v2.4h2.6V41z"/>
	<path d="M118,49.5h-6.8v2.4h6.8c2.8,0,5-2.2,5-5c0-2.8-2.3-5-5-5h-1.8c-0.9-3.5-4.1-6.1-7.8-6.1c-3.8,0-6.9,2.6-7.8,6.1h-1.8
		c-2.8,0-5,2.3-5,5c0,2.8,2.3,5,5,5h3.9v-2.4h-3.9c-1.4,0-2.6-1.2-2.6-2.6c0-1.4,1.2-2.6,2.6-2.6h3.9l0.1-1.1c0.3-2.9,2.7-5,5.6-5
		c2.9,0,5.3,2.2,5.6,5l0.1,1.1h4c1.4,0,2.6,1.2,2.6,2.6C120.6,48.3,119.4,49.5,118,49.5z"/>
	<path d="M107.8,49.5h-2.7v2.4h2.7V49.5z"/>
	<path d="M58.7,24.7l1.3,1.2l0.6-1.7c0.1-0.4,0.7-1.6,2.6-1.2l0.6-2.4c-2.3-0.6-3.9,0.4-4.7,1.4c-2.6-1.1-5.3,0.7-5.4,0.8l1.4,2
		C55.1,24.8,57.3,23.4,58.7,24.7z M90.1,28.7c-1-1.4-3-2.8-6.1-2l0.6,2.4c3.6-0.9,4.1,2.4,4.5,3.6l1.4-1.2c2.2-1.9,5.3,0.1,5.4,0.2
		l1.4-2C97.1,29.5,93.4,27.1,90.1,28.7z"/>
</g>
</svg>
