<?xml version="1.0" encoding="utf-8"?>
<!-- Generator: Adobe Illustrator 25.0.0, SVG Export Plug-In . SVG Version: 6.00 Build 0)  -->
<svg version="1.1" id="Layer_1" xmlns="http://www.w3.org/2000/svg" xmlns:xlink="http://www.w3.org/1999/xlink" x="0px" y="0px"
	 viewBox="0 0 141.2 141.2" style="enable-background:new 0 0 141.2 141.2;" xml:space="preserve">
<style type="text/css">
	.st0{stroke:#000000;stroke-width:0.963;stroke-miterlimit:10;}
</style>
<g>
	<path class="st0" d="M26.1,80.8c-0.2,0-0.3,0-0.5-0.1L9.8,71.5c-0.2-0.1-0.4-0.4-0.5-0.6c-0.1-0.3,0-0.5,0.1-0.8l20.7-35
		c0.3-0.5,0.9-0.6,1.3-0.3l15.8,9.2c0.2,0.1,0.4,0.4,0.5,0.6c0.1,0.3,0,0.5-0.1,0.8l-20.7,35C26.7,80.6,26.4,80.8,26.1,80.8z
		 M11.7,70.2l14.1,8.2l19.7-33.3l-14.1-8.2L11.7,70.2z"/>
	<path class="st0" d="M32.9,81.8c-0.2,0-0.3,0-0.5-0.1l-5.5-3.2c-0.2-0.1-0.4-0.4-0.5-0.6c-0.1-0.3,0-0.5,0.1-0.8l18.1-30.5
		c0.3-0.5,0.9-0.6,1.3-0.3l5.5,3.2c0.2,0.1,0.4,0.4,0.5,0.6c0.1,0.3,0,0.5-0.1,0.8L33.8,81.3C33.6,81.6,33.3,81.8,32.9,81.8z
		 M28.8,77.2l3.8,2.2l17.1-28.8l-3.8-2.2L28.8,77.2z M22.3,72.5c-0.7,0-1.5-0.2-2.2-0.6c-1-0.6-1.7-1.5-2-2.6
		c-0.3-1.1-0.1-2.2,0.5-3.2c1.2-2,3.8-2.7,5.8-1.5c1,0.6,1.7,1.5,2,2.6c0.3,1.1,0.1,2.2-0.5,3.2C25.2,71.8,23.8,72.5,22.3,72.5z
		 M22.3,66c-0.8,0-1.6,0.4-2,1.1c-0.3,0.5-0.4,1.1-0.2,1.7c0.2,0.6,0.5,1.1,1.1,1.4c1.1,0.6,2.5,0.3,3.1-0.8
		c0.3-0.5,0.4-1.1,0.2-1.7c-0.2-0.6-0.5-1.1-1.1-1.4c0,0,0,0,0,0C23.1,66.1,22.7,66,22.3,66z M112.1,82.1c-0.3,0-0.7-0.2-0.9-0.5
		L93.6,50.8c-0.1-0.2-0.2-0.5-0.1-0.8c0.1-0.3,0.2-0.5,0.5-0.6l5.6-3.2c0.5-0.3,1.1-0.1,1.3,0.4l17.6,30.8c0.1,0.2,0.2,0.5,0.1,0.8
		c-0.1,0.3-0.2,0.5-0.5,0.6l-5.6,3.2C112.5,82.1,112.3,82.1,112.1,82.1z M95.9,50.7l16.6,29l3.9-2.2l-16.6-29L95.9,50.7z"/>
	<path class="st0" d="M119,81.2c-0.3,0-0.7-0.2-0.9-0.5L97.9,45.4c-0.1-0.2-0.2-0.5-0.1-0.8c0.1-0.3,0.2-0.5,0.5-0.6l15.9-9
		c0.5-0.3,1.1-0.1,1.3,0.4l20.2,35.3c0.1,0.2,0.2,0.5,0.1,0.8c-0.1,0.3-0.2,0.5-0.5,0.6l-15.9,9C119.3,81.2,119.2,81.2,119,81.2z
		 M100.1,45.3l19.3,33.6l14.2-8l-19.3-33.6L100.1,45.3z"/>
	<path class="st0" d="M123.1,72.7c-1.5,0-2.9-0.8-3.7-2.1c-0.6-1-0.7-2.1-0.4-3.2c0.3-1.1,1-2,2-2.6c2-1.2,4.7-0.4,5.8,1.6
		c0.6,1,0.7,2.1,0.4,3.2c-0.3,1.1-1,2-2,2.6C124.5,72.5,123.8,72.7,123.1,72.7z M123.1,66.2c-0.4,0-0.8,0.1-1.1,0.3
		c-0.5,0.3-0.9,0.8-1.1,1.4c-0.2,0.6-0.1,1.2,0.2,1.7c0.6,1.1,2,1.5,3.1,0.9l0,0c0.5-0.3,0.9-0.8,1.1-1.4c0.2-0.6,0.1-1.2-0.2-1.7
		C124.6,66.6,123.9,66.2,123.1,66.2z M72.1,58.1c-0.2,0-0.4-0.1-0.5-0.2c-10.8-7-17.6-0.7-17.6-0.6c-0.3,0.3-0.8,0.4-1.2,0.1
		l-4.5-2.6c-0.5-0.3-0.6-0.9-0.4-1.4c0.3-0.5,0.9-0.6,1.4-0.4l3.9,2.3c2.1-1.5,9.3-5.7,19.5,0.9c0.5,0.3,0.6,0.9,0.3,1.4
		C72.8,58,72.4,58.1,72.1,58.1z M38.8,85.2C38.8,85.2,38.8,85.2,38.8,85.2c-0.6,0-1-0.5-1-1l0.2-3.9l-3.5-2.1
		c-0.5-0.3-0.6-0.9-0.4-1.4c0.3-0.5,0.9-0.6,1.4-0.4l4.1,2.4c0.3,0.2,0.5,0.5,0.5,0.9l-0.3,4.5C39.8,84.8,39.3,85.2,38.8,85.2z
		 M77.3,116.4c-1.1,0-2.2-0.3-3.2-0.9l-2.4-1.4c-0.5-0.3-0.6-0.9-0.4-1.3c0.3-0.5,0.9-0.6,1.3-0.4l2.4,1.4c2,1.2,4.7,0.5,5.9-1.5
		c0.6-1.1,0.8-2.3,0.5-3.3c-0.3-1-0.9-1.8-1.8-2.3l-0.6-0.3c-0.5-0.3-0.6-0.9-0.4-1.4c0.3-0.5,0.9-0.6,1.4-0.4l0.6,0.3
		c1.4,0.8,2.3,2,2.7,3.5c0.4,1.6,0.1,3.3-0.8,4.8C81.6,115.3,79.5,116.4,77.3,116.4z"/>
	<path class="st0" d="M87.3,110.1c-1.1,0-2.1-0.3-3.1-0.8l-5.3-3.1c-0.5-0.3-0.6-0.9-0.4-1.4c0.3-0.5,0.9-0.6,1.4-0.4l5.3,3.1
		c2,1.2,4.6,0.5,5.7-1.5c0.6-1,0.7-2.1,0.4-3.1c-0.3-1.1-1-2-1.9-2.6l-6.3-3.7c-0.5-0.3-0.6-0.9-0.4-1.4c0.3-0.5,0.9-0.6,1.4-0.4
		l6.3,3.7c1.4,0.8,2.4,2.2,2.8,3.8c0.4,1.6,0.2,3.2-0.7,4.6C91.5,109,89.5,110.1,87.3,110.1z"/>
	<path class="st0" d="M96.4,103.4c-1.1,0-2.1-0.3-3.1-0.8l-9.3-5.5c-0.5-0.3-0.6-0.9-0.4-1.4c0.3-0.5,0.9-0.6,1.4-0.4l9.3,5.5
		c2,1.2,4.6,0.5,5.7-1.5c0.6-1,0.7-2.1,0.4-3.1c-0.3-1.1-1-2-1.9-2.5l-9.3-5.5c-0.5-0.3-0.6-0.9-0.4-1.4c0.3-0.5,0.9-0.6,1.4-0.4
		l9.3,5.5c1.4,0.8,2.4,2.2,2.8,3.8c0.4,1.6,0.2,3.2-0.7,4.6C100.5,102.3,98.5,103.4,96.4,103.4z"/>
	<path class="st0" d="M103.5,95.6c-1.1,0-2.2-0.3-3.2-0.9l-11.1-6.5c-0.5-0.3-0.6-0.9-0.4-1.4c0.3-0.5,0.9-0.6,1.4-0.4l11.1,6.5
		c2.1,1.2,4.8,0.5,6-1.6c0.6-1,0.8-2.2,0.5-3.3c-0.3-1.1-1-2.1-2-2.7L94.7,79c-0.5-0.3-0.6-0.9-0.4-1.4c0.3-0.5,0.9-0.6,1.4-0.4
		l11.1,6.5c1.5,0.9,2.5,2.2,2.9,3.9c0.4,1.6,0.2,3.4-0.7,4.8C107.8,94.5,105.7,95.6,103.5,95.6z"/>
	<path class="st0" d="M95.2,79.1c-0.2,0-0.3,0-0.5-0.1L76,68.1c-0.5-0.3-0.6-0.9-0.4-1.4c0.3-0.5,0.9-0.6,1.4-0.4l18.6,10.9
		c0.5,0.3,0.6,0.9,0.4,1.4C95.8,78.9,95.5,79.1,95.2,79.1z M41,95c-2.2,0-4.4-1.2-5.5-3.2c-0.8-1.5-1-3.1-0.5-4.7
		c0.5-1.6,1.5-2.9,3-3.7l10.7-5.7c3-1.6,6.8-0.5,8.4,2.5c0.8,1.5,1,3.1,0.5,4.7c-0.5,1.6-1.5,2.9-3,3.7l-10.7,5.7
		C43,94.8,42,95,41,95z M51.7,78.9c-0.7,0-1.4,0.2-2,0.5L39,85.1c-1,0.5-1.7,1.4-2,2.5c-0.3,1.1-0.2,2.2,0.3,3.2
		c1.1,2,3.7,2.8,5.7,1.7l10.7-5.7c1-0.5,1.7-1.4,2-2.5c0.3-1.1,0.2-2.2-0.3-3.2C54.6,79.7,53.2,78.9,51.7,78.9z M49.2,78.5
		L49.2,78.5L49.2,78.5z"/>
	<path class="st0" d="M47.8,103.1c-2.2,0-4.4-1.2-5.5-3.2c-0.8-1.4-1-3.1-0.5-4.7c0.5-1.6,1.5-2.9,3-3.7l11-5.8
		c3-1.6,6.8-0.5,8.4,2.5c0.8,1.5,1,3.1,0.5,4.7c-0.5,1.6-1.5,2.9-3,3.7l-11,5.8C49.8,102.9,48.8,103.1,47.8,103.1z M58.8,87
		c-0.7,0-1.4,0.2-2,0.5c0,0,0,0,0,0l-11,5.8c-1,0.5-1.7,1.4-2,2.5C43.4,96.8,43.5,98,44,99c1.1,2,3.7,2.8,5.7,1.7l11-5.8
		c1-0.5,1.7-1.4,2-2.5c0.3-1.1,0.2-2.2-0.3-3.2C61.8,87.8,60.3,87,58.8,87z M56.3,86.6L56.3,86.6L56.3,86.6z"/>
	<path class="st0" d="M57.2,110c-2.2,0-4.4-1.2-5.5-3.2c-0.8-1.5-1-3.1-0.5-4.7c0.5-1.6,1.5-2.9,3-3.7l9.5-5c3-1.6,6.8-0.5,8.4,2.5
		c0.8,1.5,1,3.1,0.5,4.7c-0.5,1.6-1.5,2.9-3,3.7l-9.5,5C59.1,109.7,58.1,110,57.2,110z M66.6,94.6c-0.7,0-1.4,0.2-2,0.5c0,0,0,0,0,0
		l-9.5,5c-1,0.5-1.7,1.4-2,2.5c-0.3,1.1-0.2,2.2,0.3,3.2c1.1,2,3.7,2.8,5.7,1.7l9.5-5c1-0.5,1.7-1.4,2-2.5c0.3-1.1,0.2-2.2-0.3-3.2
		C69.6,95.4,68.1,94.6,66.6,94.6z M64.2,94.2L64.2,94.2L64.2,94.2z"/>
	<path class="st0" d="M66.8,116.6c-2.2,0-4.3-1.2-5.5-3.2c-0.8-1.4-1-3.1-0.5-4.7c0.5-1.6,1.5-2.9,3-3.7l5-2.9c0,0,0,0,0,0
		c3-1.6,6.8-0.5,8.4,2.5c0.8,1.4,1,3.1,0.5,4.7c-0.5,1.6-1.5,2.9-3,3.7l-5,2.9C68.8,116.4,67.8,116.6,66.8,116.6z M69.8,103.8
		l-5.1,3c-1,0.6-1.7,1.4-2.1,2.5c-0.3,1.1-0.2,2.2,0.3,3.2c1.1,2,3.7,2.8,5.7,1.7l5-2.9c1-0.6,1.7-1.4,2.1-2.5
		c0.3-1.1,0.2-2.2-0.3-3.2C74.4,103.5,71.9,102.7,69.8,103.8z"/>
	<path class="st0" d="M66,80.3c-1.2,0-2.4-0.3-3.4-0.9c-1.6-0.9-2.7-2.4-3.1-4.1c-0.5-1.7-0.2-3.6,0.7-5.1l6-10.2
		c0.4-0.7,1-1.2,1.7-1.5l13-5.5c0.4-0.1,0.7-0.2,1.1-0.3c1.4-0.1,6.3-0.2,9.9,2.9l4-2.2c0.5-0.3,1.1-0.1,1.3,0.4
		c0.3,0.5,0.1,1.1-0.4,1.3l-4.6,2.5c-0.4,0.2-0.9,0.1-1.2-0.2c-3.1-3.1-7.6-2.9-8.9-2.8c-0.2,0-0.3,0.1-0.5,0.1l-13,5.5
		c-0.3,0.1-0.6,0.4-0.7,0.7l-6,10.2c-0.6,1.1-0.8,2.4-0.5,3.6c0.3,1.2,1.1,2.3,2.2,2.9c2.3,1.3,5.3,0.6,6.6-1.7l5.5-9.3
		c0.3-0.5,0.9-0.6,1.4-0.3c0.5,0.3,0.6,0.9,0.3,1.4L71.9,77C70.6,79.1,68.3,80.3,66,80.3z"/>
	<path class="st0" d="M106.3,85.6c-0.5,0-1-0.4-1-0.9l-0.2-4.7c0-0.4,0.2-0.7,0.5-0.9l3.7-2.3c0.5-0.3,1.1-0.1,1.4,0.3
		c0.3,0.5,0.1,1.1-0.3,1.4l-3.2,2l0.2,4.1C107.3,85.1,106.9,85.6,106.3,85.6C106.3,85.6,106.3,85.6,106.3,85.6z"/>
</g>
</svg>
