<?xml version="1.0" encoding="utf-8"?>
<!-- Generator: Adobe Illustrator 25.0.0, SVG Export Plug-In . SVG Version: 6.00 Build 0)  -->
<svg version="1.1" id="Layer_1" xmlns="http://www.w3.org/2000/svg" xmlns:xlink="http://www.w3.org/1999/xlink" x="0px" y="0px"
	 viewBox="0 0 141.2 141.2" style="enable-background:new 0 0 141.2 141.2;" xml:space="preserve">
<style type="text/css">
	.st0{fill:none;}
	.st1{fill:#FFFFFF;}
</style>
<g>
	<path class="st0" d="M104.5,76v6.2c0,1,0.4,1.9,1.1,2.7c0.7,0.7,1.7,1.1,2.7,1.1c1,0,1.9-0.4,2.7-1.1s1.1-1.7,1.1-2.7V76
		C109.5,76.7,106.9,76.7,104.5,76z"/>
	<path class="st0" d="M25.7,78.4h3.7v-3.7c0-0.1,0-0.1,0-0.2c-2.9-1.6-5.1-4.2-6.4-7.2c-1.3-3-1.5-6.4-0.6-9.6c0.9-3.2,2.7-6,5.4-8
		c2.6-2,5.8-3.1,9.1-3.1c0.2,0,0.5,0.1,0.7,0.1c0.1,0,0.1,0,0.2,0h0c0.2,0,0.4,0,0.6,0.1c3.2,0.3,6.1,1.6,8.5,3.7
		c2.4,2.1,4,4.9,4.7,8c0.7,3.1,0.3,6.3-1,9.2c-1.3,2.9-3.5,5.3-6.2,6.9c0,0.1,0,0.1,0,0.2v3.7h3.7c3.5,0,6.8,1.4,9.3,3.8
		c2.5,2.5,3.8,5.8,3.8,9.3v14.9h22.5V91.5c0-3.5,1.4-6.8,3.8-9.3c2.5-2.5,5.8-3.8,9.3-3.8h3.7v-3.7c0-0.1,0-0.1,0-0.2
		c-2.8-1.6-5-4-6.3-7c-1.3-2.9-1.6-6.2-0.9-9.3c0.7-3.1,2.4-5.9,4.9-8c2.4-2.1,5.5-3.3,8.7-3.5c0.8-2,2.3-3.6,4.2-4.6
		c1.9-1,4.1-1.3,6.2-0.9c2.1,0.4,4,1.6,5.4,3.3c1.4,1.7,2.1,3.8,2.1,5.9c0,2.4-1,4.8-2.7,6.5c1.2,3.3,1.1,6.8-0.1,10.1
		c-1.2,3.2-3.6,5.9-6.6,7.6c0,0.1,0,0.1,0,0.2v3.7h3.7c3.5,0,6.8,1.4,9.3,3.8c2.5,2.5,3.8,5.8,3.8,9.3V37.1h-120v54.4
		c0-3.5,1.4-6.8,3.8-9.3C18.9,79.7,22.3,78.4,25.7,78.4z M55.5,48.1c1.1-1.1,2.5-1.6,4-1.6h24l-4.7-4.8c-0.3-0.4-0.5-0.8-0.5-1.3
		c0-0.5,0.2-1,0.5-1.3c0.3-0.3,0.8-0.5,1.3-0.5c0.5,0,1,0.2,1.3,0.5l7.9,8c0.4,0.4,0.5,0.8,0.5,1.3c0,0.5-0.2,1-0.5,1.3l-8,8
		c-0.2,0.2-0.4,0.3-0.6,0.4c-0.2,0.1-0.5,0.1-0.7,0.2c-0.2,0-0.5,0-0.7-0.1c-0.2-0.1-0.4-0.2-0.6-0.4c-0.2-0.2-0.3-0.4-0.4-0.6
		c-0.1-0.2-0.1-0.5-0.1-0.7c0-0.2,0.1-0.5,0.2-0.7c0.1-0.2,0.2-0.4,0.4-0.6l4.8-4.8h-24c-0.5,0-1,0.2-1.3,0.5
		c-0.4,0.4-0.5,0.8-0.5,1.3c0,0.5-0.2,1-0.5,1.3c-0.4,0.4-0.8,0.5-1.3,0.5c-0.5,0-1-0.2-1.3-0.5c-0.4-0.4-0.5-0.8-0.5-1.3
		C53.9,50.6,54.5,49.2,55.5,48.1z M54.4,65.8l8-8c0.4-0.3,0.8-0.5,1.3-0.5c0.5,0,1,0.2,1.3,0.5c0.3,0.3,0.5,0.8,0.5,1.3
		c0,0.5-0.2,1-0.5,1.3l-4.8,4.8h24c0.5,0,1-0.2,1.3-0.5c0.4-0.4,0.5-0.8,0.5-1.3c0-0.5,0.2-1,0.5-1.3c0.4-0.4,0.8-0.5,1.3-0.5
		c0.5,0,1,0.2,1.3,0.5c0.4,0.4,0.5,0.8,0.5,1.3c0,1.5-0.6,2.9-1.6,4c-1.1,1.1-2.5,1.6-4,1.6h-24l4.7,4.8c0.3,0.4,0.5,0.8,0.5,1.3
		c0,0.5-0.2,1-0.5,1.3c-0.3,0.3-0.8,0.5-1.3,0.5c-0.5,0-1-0.2-1.3-0.5l-8-8c-0.4-0.4-0.5-0.8-0.5-1.3C53.9,66.6,54.1,66.1,54.4,65.8
		z"/>
	<path class="st0" d="M38,56.6l10,2.8c-0.5-2.6-1.8-4.9-3.8-6.6c-2-1.7-4.6-2.6-7.2-2.6c-2.6,0-5.1,0.9-7.2,2.6
		c-2,1.7-3.4,4-3.9,6.6l6-2.4C33.9,56.2,36,56.1,38,56.6z"/>
	<path class="st0" d="M33.2,76v6.2c0,1,0.4,1.9,1.1,2.7s1.7,1.1,2.7,1.1c1,0,1.9-0.4,2.7-1.1s1.1-1.7,1.1-2.7V76
		c-1.2,0.3-2.5,0.5-3.7,0.5C35.7,76.5,34.5,76.3,33.2,76z"/>
	<path class="st0" d="M95.1,95.2c0-0.5,0.2-1,0.5-1.3c0.4-0.4,0.8-0.5,1.3-0.5c0.5,0,1,0.2,1.3,0.5c0.4,0.4,0.5,0.8,0.5,1.3v11.2
		h18.7V95.2c0-0.5,0.2-1,0.5-1.3c0.4-0.4,0.8-0.5,1.3-0.5c0.5,0,1,0.2,1.3,0.5c0.4,0.4,0.5,0.8,0.5,1.3v11.2h7.5V91.5
		c0-2.5-1-4.9-2.7-6.6c-1.8-1.8-4.1-2.7-6.6-2.7h-3.7c0,2-0.8,3.9-2.2,5.3c-1.4,1.4-3.3,2.2-5.3,2.2c-2,0-3.9-0.8-5.3-2.2
		c-1.4-1.4-2.2-3.3-2.2-5.3H97c-2.5,0-4.9,1-6.6,2.7c-1.8,1.8-2.7,4.1-2.7,6.6v14.9h7.5V95.2z"/>
	<path class="st0" d="M106.4,54.3c0.3,0,0.7,0.1,1,0.3c3.5,1.7,7.4,2.6,11.3,2.7c-0.8-2.1-2.3-3.9-4.1-5.1c-1.9-1.3-4-1.9-6.3-1.9
		c-2.1,0-4.3,0.6-6.1,1.8c-1.8,1.2-3.2,2.8-4.1,4.8c2.6-0.3,5-1,7.3-2.2C105.7,54.4,106,54.3,106.4,54.3z"/>
	<path class="st0" d="M56.9,87.9c-0.5-1.1-1.2-2.2-2-3c-0.9-0.9-1.9-1.6-3-2c-1.1-0.5-2.4-0.7-3.6-0.7h-3.7c0,2-0.8,3.9-2.2,5.3
		c-1.4,1.4-3.3,2.2-5.3,2.2c-2,0-3.9-0.8-5.3-2.2c-1.4-1.4-2.2-3.3-2.2-5.3h-3.7c-2.5,0-4.9,1-6.6,2.7c-1.8,1.8-2.7,4.1-2.7,6.6
		v14.9h7.5V95.2c0-0.5,0.2-1,0.5-1.3c0.4-0.4,0.8-0.5,1.3-0.5c0.5,0,1,0.2,1.3,0.5c0.4,0.4,0.5,0.8,0.5,1.3v11.2h18.7V95.2
		c0-0.5,0.2-1,0.5-1.3c0.4-0.4,0.8-0.5,1.3-0.5c0.5,0,1,0.2,1.3,0.5c0.4,0.4,0.5,0.8,0.5,1.3v11.2h7.5V91.5
		C57.6,90.3,57.4,89,56.9,87.9z"/>
	<path class="st0" d="M120.6,53c0.5-0.8,0.8-1.8,0.8-2.8c0-1.5-0.6-2.9-1.6-4c-1.1-1.1-2.5-1.6-4-1.6c-0.9,0-1.7,0.2-2.5,0.6
		c-0.8,0.4-1.4,0.9-1.9,1.6C115.1,47.6,118.4,49.8,120.6,53z"/>
	<path class="st0" d="M119.5,61.5c0-0.1,0-0.3,0-0.4c-4.5-0.1-8.9-1-13.1-2.7c-3,1.3-6.1,2.1-9.3,2.4c0,0.2-0.1,0.5-0.1,0.7h0
		c0,3,1.2,5.8,3.3,8c2.1,2.1,5,3.3,8,3.3c3,0,5.8-1.2,8-3.3C118.3,67.3,119.5,64.5,119.5,61.5z"/>
	<path class="st0" d="M37,72.7c2.7,0,5.2-0.9,7.3-2.7c2-1.7,3.4-4.1,3.8-6.7c-0.1,0-0.2,0-0.3,0l-10.7-3c-1.2-0.3-2.5-0.3-3.6,0.2
		l-6.9,2.8c-0.2,0.1-0.3,0.1-0.5,0.1l0,0c0.4,2.6,1.8,5,3.8,6.7C31.8,71.8,34.3,72.7,37,72.7z"/>
	<path d="M27.1,93.9c-0.4-0.4-0.8-0.5-1.3-0.5c-0.5,0-1,0.2-1.3,0.5c-0.4,0.4-0.5,0.8-0.5,1.3v11.2h3.7V95.2
		C27.6,94.7,27.4,94.3,27.1,93.9z"/>
	<path d="M49.6,93.9c-0.4-0.4-0.8-0.5-1.3-0.5c-0.5,0-1,0.2-1.3,0.5c-0.4,0.4-0.5,0.8-0.5,1.3v11.2h3.7V95.2
		C50.1,94.7,49.9,94.3,49.6,93.9z"/>
	<path d="M98.3,93.9c-0.4-0.4-0.8-0.5-1.3-0.5c-0.5,0-1,0.2-1.3,0.5c-0.4,0.4-0.5,0.8-0.5,1.3v11.2h3.7V95.2
		C98.9,94.7,98.7,94.3,98.3,93.9z"/>
	<path d="M120.8,93.9c-0.4-0.4-0.8-0.5-1.3-0.5c-0.5,0-1,0.2-1.3,0.5c-0.4,0.4-0.5,0.8-0.5,1.3v11.2h3.7V95.2
		C121.4,94.7,121.2,94.3,120.8,93.9z"/>
	<path d="M55.7,54c0.5,0,1-0.2,1.3-0.5c0.4-0.4,0.5-0.8,0.5-1.3c0-0.5,0.2-1,0.5-1.3c0.4-0.4,0.8-0.5,1.3-0.5h24L78.8,55
		c-0.2,0.2-0.3,0.4-0.4,0.6c-0.1,0.2-0.1,0.5-0.2,0.7c0,0.2,0,0.5,0.1,0.7c0.1,0.2,0.2,0.4,0.4,0.6c0.2,0.2,0.4,0.3,0.6,0.4
		c0.2,0.1,0.5,0.1,0.7,0.1c0.2,0,0.5-0.1,0.7-0.2c0.2-0.1,0.4-0.2,0.6-0.4l8-8c0.4-0.4,0.5-0.8,0.5-1.3c0-0.5-0.2-1-0.5-1.3l-7.9-8
		c-0.4-0.3-0.8-0.5-1.3-0.5c-0.5,0-1,0.2-1.3,0.5c-0.3,0.3-0.5,0.8-0.5,1.3c0,0.5,0.2,1,0.5,1.3l4.7,4.8h-24c-1.5,0-2.9,0.6-4,1.6
		c-1.1,1.1-1.6,2.5-1.6,4c0,0.5,0.2,1,0.5,1.3C54.8,53.8,55.2,54,55.7,54z"/>
	<path d="M62.4,76.4c0.4,0.3,0.8,0.5,1.3,0.5c0.5,0,1-0.2,1.3-0.5c0.3-0.3,0.5-0.8,0.5-1.3c0-0.5-0.2-1-0.5-1.3L60.3,69h24
		c1.5,0,2.9-0.6,4-1.6c1.1-1.1,1.6-2.5,1.6-4c0-0.5-0.2-1-0.5-1.3c-0.4-0.4-0.8-0.5-1.3-0.5c-0.5,0-1,0.2-1.3,0.5
		c-0.4,0.4-0.5,0.8-0.5,1.3c0,0.5-0.2,1-0.5,1.3c-0.4,0.4-0.8,0.5-1.3,0.5h-24l4.8-4.8c0.3-0.4,0.5-0.8,0.5-1.3c0-0.5-0.2-1-0.5-1.3
		c-0.3-0.3-0.8-0.5-1.3-0.5c-0.5,0-1,0.2-1.3,0.5l-8,8c-0.4,0.4-0.5,0.8-0.5,1.3c0,0.5,0.2,1,0.5,1.3L62.4,76.4z"/>
	<path d="M119.5,78.4h-3.7v-3.7c0-0.1,0-0.1,0-0.2c3-1.7,5.4-4.4,6.6-7.6c1.2-3.2,1.3-6.8,0.1-10.1c1.7-1.7,2.7-4.1,2.7-6.5
		c0-2.2-0.7-4.3-2.1-5.9c-1.4-1.7-3.3-2.8-5.4-3.3c-2.1-0.4-4.3-0.1-6.2,0.9c-1.9,1-3.4,2.7-4.2,4.6c-3.2,0.2-6.2,1.5-8.7,3.5
		c-2.4,2.1-4.1,4.9-4.9,8c-0.7,3.1-0.4,6.4,0.9,9.3c1.3,2.9,3.5,5.4,6.3,7c0,0.1,0,0.1,0,0.2v3.7H97c-3.5,0-6.8,1.4-9.3,3.8
		c-2.5,2.5-3.8,5.8-3.8,9.3v14.9h3.7V91.5c0-2.5,1-4.9,2.7-6.6c1.8-1.8,4.1-2.7,6.6-2.7h3.7c0,2,0.8,3.9,2.2,5.3
		c1.4,1.4,3.3,2.2,5.3,2.2c2,0,3.9-0.8,5.3-2.2c1.4-1.4,2.2-3.3,2.2-5.3h3.7c2.5,0,4.9,1,6.6,2.7c1.8,1.8,2.7,4.1,2.7,6.6v14.9h3.7
		V91.5c0-3.5-1.4-6.8-3.8-9.3C126.3,79.7,123,78.4,119.5,78.4z M113.3,45.2c0.8-0.4,1.6-0.6,2.5-0.6c1.5,0,2.9,0.6,4,1.6
		c1.1,1.1,1.6,2.5,1.6,4c0,1-0.3,1.9-0.8,2.8c-2.2-3.2-5.5-5.4-9.2-6.2C111.9,46.1,112.5,45.6,113.3,45.2z M102.2,52
		c1.8-1.2,3.9-1.8,6.1-1.8c2.2,0,4.4,0.7,6.3,1.9c1.9,1.3,3.3,3,4.1,5.1c-3.9-0.1-7.8-1-11.3-2.7c-0.3-0.2-0.6-0.3-1-0.3
		c-0.3,0-0.7,0.1-1,0.3c-2.3,1.2-4.8,1.9-7.3,2.2C98.9,54.9,100.4,53.2,102.2,52z M112,82.1c0,1-0.4,1.9-1.1,2.7s-1.7,1.1-2.7,1.1
		c-1,0-1.9-0.4-2.7-1.1c-0.7-0.7-1.1-1.7-1.1-2.7V76c2.4,0.7,5,0.7,7.5,0V82.1z M108.2,72.7c-3,0-5.8-1.2-8-3.3
		c-2.1-2.1-3.3-5-3.3-8h0c0-0.3,0.1-0.5,0.1-0.7c3.2-0.3,6.3-1.1,9.3-2.4c4.2,1.7,8.6,2.6,13.1,2.7c0,0.1,0,0.3,0,0.4
		c0,3-1.2,5.8-3.3,8C114.1,71.6,111.2,72.7,108.2,72.7z"/>
	<path d="M16.4,91.5c0-2.5,1-4.9,2.7-6.6c1.8-1.8,4.1-2.7,6.6-2.7h3.7c0,2,0.8,3.9,2.2,5.3c1.4,1.4,3.3,2.2,5.3,2.2
		c2,0,3.9-0.8,5.3-2.2c1.4-1.4,2.2-3.3,2.2-5.3h3.7c1.2,0,2.5,0.2,3.6,0.7c1.1,0.5,2.2,1.2,3,2c0.9,0.9,1.6,1.9,2,3
		c0.5,1.1,0.7,2.4,0.7,3.6v14.9h3.7V91.5c0-3.5-1.4-6.8-3.8-9.3c-2.5-2.5-5.8-3.8-9.3-3.8h-3.7v-3.7c0-0.1,0-0.1,0-0.2
		c2.8-1.6,4.9-4,6.2-6.9c1.3-2.9,1.6-6.1,1-9.2c-0.7-3.1-2.3-5.9-4.7-8c-2.4-2.1-5.4-3.4-8.5-3.7c-0.2-0.1-0.4-0.1-0.6-0.1h0
		c-0.1,0-0.1,0-0.2,0c-0.2,0-0.5-0.1-0.7-0.1c-3.3,0-6.5,1.1-9.1,3.1c-2.6,2-4.5,4.8-5.4,8c-0.9,3.2-0.6,6.6,0.6,9.6
		c1.3,3,3.5,5.6,6.4,7.2c0,0.1,0,0.1,0,0.2v3.7h-3.7c-3.5,0-6.8,1.4-9.3,3.8c-2.5,2.5-3.8,5.8-3.8,9.3v14.9h3.7V91.5z M40.7,82.1
		c0,1-0.4,1.9-1.1,2.7S38,85.9,37,85.9c-1,0-1.9-0.4-2.7-1.1s-1.1-1.7-1.1-2.7V76c1.2,0.3,2.5,0.5,3.7,0.5c1.3,0,2.5-0.2,3.7-0.5
		V82.1z M29.8,52.8c2-1.7,4.5-2.6,7.2-2.6c2.6,0,5.2,0.9,7.2,2.6c2,1.7,3.4,4,3.8,6.6l-10-2.8c-2-0.6-4.1-0.5-6.1,0.3l-6,2.4
		C26.4,56.8,27.8,54.5,29.8,52.8z M25.9,63.3L25.9,63.3c0.2,0,0.4,0,0.5-0.1l6.9-2.8c1.2-0.5,2.4-0.5,3.6-0.2l10.7,3
		c0.1,0,0.2,0,0.3,0c-0.4,2.6-1.8,5-3.8,6.7c-2,1.7-4.6,2.7-7.3,2.7c-2.7,0-5.2-0.9-7.3-2.7C27.7,68.3,26.4,65.9,25.9,63.3z"/>
	<rect x="50.1" y="106.4" class="st1" width="7.5" height="5.7"/>
	<rect x="16.4" y="106.4" class="st1" width="7.5" height="5.7"/>
	<rect x="121.4" y="106.4" class="st1" width="7.5" height="5.7"/>
	<rect x="87.6" y="106.4" class="st1" width="7.5" height="5.7"/>
</g>
</svg>
