<?xml version="1.0" encoding="utf-8"?>
<!-- Generator: Adobe Illustrator 25.0.0, SVG Export Plug-In . SVG Version: 6.00 Build 0)  -->
<svg version="1.1" id="Layer_1" xmlns="http://www.w3.org/2000/svg" xmlns:xlink="http://www.w3.org/1999/xlink" x="0px" y="0px"
	 viewBox="0 0 141.2 141.2" style="enable-background:new 0 0 141.2 141.2;" xml:space="preserve">
<style type="text/css">
	.st0{stroke:#000000;stroke-width:0.5;stroke-miterlimit:10;}
</style>
<g>
	<g>
		<path class="st0" d="M21.6,109.5c0.7,0,1.2-0.5,1.2-1.2c0-0.7-0.5-1.2-1.2-1.2c-0.7,0-1.2,0.5-1.2,1.2
			C20.4,109,20.9,109.5,21.6,109.5z"/>
		<path class="st0" d="M26.9,107.1h-1.8c-0.3,0-0.6,0.1-0.8,0.4c-0.2,0.2-0.4,0.5-0.4,0.8c0,0.3,0.1,0.6,0.4,0.8
			c0.2,0.2,0.5,0.4,0.8,0.4h1.8c0.3,0,0.6-0.1,0.8-0.4c0.2-0.2,0.4-0.5,0.4-0.8c0-0.3-0.1-0.6-0.4-0.8
			C27.6,107.2,27.3,107.1,26.9,107.1z M116.1,107.1h-1.8c-0.3,0-0.6,0.1-0.8,0.4c-0.2,0.2-0.4,0.5-0.4,0.8c0,0.3,0.1,0.6,0.4,0.8
			c0.2,0.2,0.5,0.4,0.8,0.4h1.8c0.3,0,0.6-0.1,0.8-0.4c0.2-0.2,0.4-0.5,0.4-0.8c0-0.3-0.1-0.6-0.4-0.8
			C116.7,107.2,116.4,107.1,116.1,107.1z"/>
		<path class="st0" d="M119.7,109.5c0.7,0,1.2-0.5,1.2-1.2c0-0.7-0.5-1.2-1.2-1.2c-0.7,0-1.2,0.5-1.2,1.2
			C118.5,109,119,109.5,119.7,109.5z"/>
		<path class="st0" d="M61.6,55.9c-1.1,4.8-0.4,9.8,2,14.1c2.4,4.3,6.3,7.6,11,9.1c4.7,1.6,9.8,1.3,14.3-0.7
			c4.5-2,8.1-5.6,10.1-10.1c2-4.5,2.2-9.6,0.6-14.3c-1.6-4.7-4.8-8.6-9.2-11c-4.3-2.4-9.4-3.1-14.2-1.9c-4.8,1.1-9,4-11.8,8.1l2.3,1
			c2.5-3.5,6.2-5.9,10.4-6.8c4.2-0.9,8.5-0.2,12.2,1.9c3.7,2.1,6.5,5.5,7.8,9.6c1.3,4.1,1.1,8.5-0.6,12.4c-1.7,3.9-4.8,7-8.7,8.8
			c-3.9,1.7-8.3,2-12.4,0.7c-4.1-1.3-7.5-4.1-9.6-7.8c-2.1-3.7-2.8-8-2-12.2L61.6,55.9z"/>
		<path class="st0" d="M69.5,59.3c-0.2,2.3,0.2,4.6,1.3,6.6c1.1,2,2.8,3.7,4.8,4.7c2,1,4.4,1.4,6.6,1.1c2.3-0.3,4.4-1.3,6.1-2.8
			c1.7-1.5,2.9-3.6,3.4-5.8c0.5-2.2,0.4-4.6-0.4-6.7c-0.8-2.1-2.3-4-4.2-5.3c-1.9-1.3-4.1-2-6.4-2c-1.6,0-3.1,0.3-4.6,1
			c-1.4,0.6-2.7,1.6-3.8,2.7l2.4,1c1.5-1.4,3.5-2.2,5.5-2.3c2-0.1,4.1,0.5,5.7,1.7c1.7,1.2,2.8,3,3.4,4.9c0.5,2,0.3,4.1-0.5,6
			c-0.8,1.9-2.3,3.4-4.1,4.3c-1.8,0.9-3.9,1.2-5.9,0.8c-2-0.4-3.8-1.5-5.1-3.1c-1.3-1.6-2-3.6-2-5.6c0-0.1,0-0.1,0-0.2L69.5,59.3z"
			/>
		<path class="st0" d="M33.1,41.2l1.2,0.5l-1.4,1c-0.2,0.1-0.3,0.3-0.4,0.5c-0.1,0.2-0.1,0.4-0.1,0.6c0,0.2,0.1,0.4,0.2,0.6
			c0.1,0.2,0.3,0.3,0.5,0.4l6.3,3c0.2,0.1,0.4,0.1,0.6,0.1c0.2,0,0.4-0.1,0.6-0.2l2.9-2.1l35.2,15l-2.3,0.5c-0.2,0-0.3,0.1-0.4,0.2
			c-0.1,0.1-0.2,0.2-0.3,0.3c-0.1,0.1-0.1,0.3-0.2,0.4c0,0.2,0,0.3,0,0.5c0.1,0.3,0.3,0.6,0.5,0.7c0.3,0.2,0.6,0.2,0.9,0.2l6-1.3
			c0.2,0,0.4-0.1,0.5-0.3c0.1-0.1,0.3-0.3,0.3-0.5c0.1-0.2,0.1-0.4,0.1-0.6c0-0.2-0.1-0.4-0.2-0.5l-3-4.7c-0.2-0.3-0.4-0.5-0.8-0.5
			c-0.3-0.1-0.6,0-0.9,0.2c-0.3,0.2-0.5,0.4-0.5,0.7c-0.1,0.3,0,0.6,0.2,0.9l0.9,1.4L44.1,43.3l-0.8-3.5c0-0.2-0.1-0.3-0.2-0.5
			c-0.1-0.1-0.3-0.3-0.4-0.3l-6.3-3c-0.2-0.1-0.4-0.1-0.6-0.1c-0.2,0-0.4,0.1-0.6,0.3c-0.2,0.1-0.3,0.3-0.4,0.5
			c-0.1,0.2-0.1,0.4,0,0.7l0.5,2.1L34,39c-0.1-0.1-0.3-0.1-0.5-0.1c-0.2,0-0.3,0-0.5,0.1c-0.1,0.1-0.3,0.1-0.4,0.3
			c-0.1,0.1-0.2,0.2-0.3,0.4c-0.1,0.1-0.1,0.3-0.1,0.5c0,0.2,0,0.3,0.1,0.5c0.1,0.1,0.1,0.3,0.3,0.4C32.8,41.1,32.9,41.1,33.1,41.2
			L33.1,41.2z"/>
		<path class="st0" d="M110.5,107.1h-10.2l-8.7-20.7c4.1-1.7,7.7-4.4,10.6-7.8c2.9-3.4,4.9-7.4,5.9-11.7c1-4.3,1-8.8-0.1-13.2
			c-1.1-4.3-3.1-8.3-6.1-11.7c-2.9-3.4-6.6-6-10.7-7.6c-4.1-1.7-8.6-2.3-13-1.9c-4.4,0.4-8.7,1.8-12.5,4.2c-3.8,2.4-6.9,5.6-9.2,9.4
			l2.2,0.9c3.4-5.5,8.8-9.6,15.1-11.3c6.3-1.7,13-1,18.7,2c5.8,3,10.2,8.1,12.3,14.2c2.2,6.1,1.9,12.9-0.7,18.8
			c-2.6,6-7.4,10.7-13.3,13.3c-6,2.6-12.7,2.8-18.8,0.6C66,82.5,60.9,78.1,58,72.3c-3-5.8-3.7-12.5-1.9-18.7l-2.2-0.9
			c-1.9,6.4-1.4,13.3,1.4,19.5c2.8,6.1,7.6,11,13.7,13.9L60,107.1H30.7c-0.2,0-0.3,0-0.5,0c-0.2,0.1-0.3,0.1-0.4,0.2
			c-0.1,0.1-0.2,0.3-0.3,0.4c-0.1,0.2-0.1,0.3-0.1,0.5c0,0.2,0,0.3,0.1,0.5c0.1,0.2,0.2,0.3,0.3,0.4c0.1,0.1,0.3,0.2,0.4,0.2
			c0.2,0.1,0.3,0.1,0.5,0h79.8c0.2,0,0.3,0,0.5,0c0.2-0.1,0.3-0.1,0.4-0.2c0.1-0.1,0.2-0.3,0.3-0.4c0.1-0.2,0.1-0.3,0.1-0.5
			c0-0.2,0-0.3-0.1-0.5c-0.1-0.2-0.2-0.3-0.3-0.4c-0.1-0.1-0.3-0.2-0.4-0.2C110.9,107.1,110.7,107.1,110.5,107.1z M71.1,86.8
			c5.9,2.2,12.3,2.3,18.3,0.4l8.4,19.9H62.6L71.1,86.8z"/>
	</g>
</g>
</svg>
