<?xml version="1.0" encoding="utf-8"?>
<!-- Generator: Adobe Illustrator 25.0.0, SVG Export Plug-In . SVG Version: 6.00 Build 0)  -->
<svg version="1.1" id="Layer_1" xmlns="http://www.w3.org/2000/svg" xmlns:xlink="http://www.w3.org/1999/xlink" x="0px" y="0px"
	 viewBox="0 0 141.2 141.2" style="enable-background:new 0 0 141.2 141.2;" xml:space="preserve">
<style type="text/css">
	.st0{stroke:#000000;stroke-width:0.5;stroke-miterlimit:10;}
	.st1{stroke:#000000;stroke-miterlimit:10;}
	.st2{stroke:#000000;stroke-width:0.75;stroke-miterlimit:10;}
</style>
<path class="st0" d="M49,80.8c-6.3,0-11.4,5.1-11.4,11.4c0,6.3,5.1,11.4,11.4,11.4c6.3,0,11.4-5.1,11.4-11.4
	C60.4,86,55.3,80.8,49,80.8z M49,101.4c-5,0-9.1-4.1-9.1-9.1c0-5,4.1-9.1,9.1-9.1c5,0,9.1,4.1,9.1,9.1
	C58.2,97.3,54.1,101.4,49,101.4z"/>
<path class="st1" d="M82.3,87.7l-8.8-1.2c-0.6-2.6-1.7-5.1-3.1-7.4l5.4-7.1c0.3-0.5,0.3-1.1-0.1-1.5l-4.9-4.8
	c-0.4-0.4-1-0.4-1.5-0.1l-7.1,5.4c-2.3-1.4-4.8-2.5-7.4-3.1L53.6,59c-0.1-0.6-0.6-1-1.1-1h-6.9c-0.6,0-1.1,0.4-1.1,1l-1.2,8.8
	c-2.6,0.6-5.1,1.7-7.4,3.1l-7.1-5.4c-0.5-0.3-1.1-0.3-1.5,0.1l-4.8,4.8c-0.4,0.4-0.4,1-0.1,1.5l5.4,7.1c-1.4,2.3-2.5,4.8-3.1,7.4
	l-8.8,1.2c-0.6,0.1-1,0.6-1,1.1v6.9c0,0.6,0.4,1.1,1,1.1l8.8,1.2c0.6,2.6,1.7,5.1,3.1,7.4l-5.4,7.1c-0.3,0.5-0.3,1.1,0.1,1.5
	l4.8,4.8c0.4,0.4,1,0.4,1.5,0.1l7.1-5.4c2.3,1.4,4.8,2.5,7.4,3.1l1.2,8.8c0.1,0.6,0.6,1,1.1,1h6.9c0.6,0,1.1-0.4,1.1-1l1.2-8.8
	c2.6-0.6,5.1-1.7,7.4-3.1l7.1,5.4c0.5,0.3,1.1,0.3,1.5-0.1l4.9-4.8c0.4-0.4,0.4-1,0.1-1.5l-5.4-7.1c1.4-2.3,2.5-4.8,3.1-7.4l8.8-1.2
	c0.6-0.1,1-0.6,1-1.1v-6.9C83.3,88.3,82.9,87.8,82.3,87.7z M81,94.7l-8.6,1.2c-0.5,0.1-0.9,0.4-1,0.9c-0.6,2.9-1.7,5.6-3.4,8.1
	c-0.3,0.4-0.3,0.9,0,1.3l5.3,7l-3.4,3.4l-6.9-5.3c-0.4-0.3-0.9-0.3-1.3,0c-2.5,1.6-5.2,2.8-8.1,3.4c-0.5,0.1-0.8,0.5-0.9,1l-1.2,8.6
	h-4.9l-1.2-8.6c-0.1-0.5-0.4-0.9-0.9-1c-2.9-0.6-5.6-1.7-8.1-3.4c-0.4-0.3-0.9-0.3-1.3,0l-6.9,5.3l-3.4-3.4l5.3-6.9
	c0.3-0.4,0.3-0.9,0-1.3c-1.6-2.5-2.8-5.2-3.4-8.1c-0.1-0.5-0.5-0.8-1-0.9L17,94.7v-4.9l8.6-1.2c0.5-0.1,0.9-0.4,1-0.9
	c0.6-2.9,1.7-5.6,3.4-8.1c0.3-0.4,0.3-0.9,0-1.3l-5.3-6.9l3.4-3.4l6.9,5.3c0.4,0.3,0.9,0.3,1.3,0c2.5-1.6,5.2-2.8,8.1-3.4
	c0.5-0.1,0.8-0.5,0.9-1l1.2-8.6h4.9l1.2,8.6c0.1,0.5,0.4,0.9,0.9,1c2.9,0.6,5.6,1.7,8.1,3.4c0.4,0.3,0.9,0.3,1.3,0l6.9-5.3l3.4,3.4
	l-5.3,6.9c-0.3,0.4-0.3,0.9,0,1.3c1.6,2.5,2.8,5.2,3.4,8.1c0.1,0.5,0.5,0.8,1,0.9l8.6,1.2V94.7z"/>
<path d="M81,35.1c-3.8,0-6.9,3.1-6.9,6.9c0,3.8,3.1,6.9,6.9,6.9s6.9-3.1,6.9-6.9C87.9,38.2,84.8,35.1,81,35.1z M81,46.6
	c-2.5,0-4.6-2-4.6-4.6c0-2.5,2-4.6,4.6-4.6c2.5,0,4.6,2,4.6,4.6C85.6,44.5,83.5,46.6,81,46.6z"/>
<path class="st2" d="M91.5,59.2l5.5,4.2c0.5,0.3,1.1,0.3,1.5-0.1l3.8-3.8c0.4-0.4,0.4-1,0.1-1.5l-4.2-5.5c1.1-1.8,1.9-3.7,2.4-5.7
	l6.8-0.9c0.6-0.1,1-0.6,1-1.1v-5.4c0-0.6-0.4-1.1-1-1.1l-6.8-0.9c-0.5-2-1.3-3.9-2.4-5.7l4.2-5.5c0.3-0.5,0.3-1.1-0.1-1.5l-3.8-3.8
	c-0.4-0.4-1-0.4-1.5-0.1l-5.5,4.2c-1.8-1.1-3.7-1.9-5.7-2.4l-0.9-6.8c-0.1-0.6-0.6-1-1.1-1h-5.4c-0.6,0-1.1,0.4-1.1,1l-0.9,6.8
	c-2,0.5-3.9,1.3-5.7,2.4L65,20.6c-0.5-0.3-1.1-0.3-1.5,0.1l-3.8,3.8c-0.4,0.4-0.4,1-0.1,1.5l4.2,5.5c-1.1,1.8-1.9,3.7-2.4,5.7
	l-6.8,0.9c-0.6,0.1-1,0.6-1,1.1v5.4c0,0.6,0.4,1.1,1,1.1l6.8,0.9c0.5,2,1.3,3.9,2.4,5.7L59.6,58c-0.3,0.5-0.3,1.1,0.1,1.5l3.8,3.8
	c0.4,0.4,1,0.4,1.5,0.1l5.5-4.2c1.8,1.1,3.7,1.9,5.7,2.4l0.9,6.8c0.1,0.6,0.6,1,1.1,1h5.4c0.6,0,1.1-0.4,1.1-1l0.9-6.8
	C87.8,61.1,89.7,60.3,91.5,59.2z M84.5,59.5c-0.5,0.1-0.8,0.5-0.9,1l-0.9,6.6h-3.4l-0.9-6.6c-0.1-0.5-0.4-0.9-0.9-1
	c-2.3-0.5-4.4-1.3-6.3-2.6c-0.4-0.3-0.9-0.3-1.3,0l-5.3,4L62,58.5l4-5.3c0.3-0.4,0.3-0.9,0-1.3c-1.3-1.9-2.2-4.1-2.6-6.3
	c-0.1-0.5-0.5-0.8-1-0.9l-6.6-0.9v-3.4l6.6-0.9c0.5-0.1,0.9-0.4,1-0.9c0.5-2.3,1.3-4.4,2.6-6.3c0.3-0.4,0.3-0.9,0-1.3l-4-5.3
	l2.4-2.4l5.3,4c0.4,0.3,0.9,0.3,1.3,0c1.9-1.3,4.1-2.2,6.3-2.6c0.5-0.1,0.8-0.5,0.9-1l0.9-6.6h3.4l0.9,6.6c0.1,0.5,0.4,0.9,0.9,1
	c2.3,0.5,4.4,1.3,6.3,2.6c0.4,0.3,0.9,0.3,1.3,0l5.3-4l2.4,2.4l-4,5.3c-0.3,0.4-0.3,0.9,0,1.3c1.3,1.9,2.2,4.1,2.6,6.3
	c0.1,0.5,0.5,0.8,1,0.9l6.6,0.9v3.4l-6.6,0.9c-0.5,0.1-0.9,0.4-1,0.9c-0.5,2.3-1.3,4.4-2.6,6.3c-0.3,0.4-0.3,0.9,0,1.3l4,5.3
	L97.6,61l-5.3-4c-0.4-0.3-0.9-0.3-1.3,0C89,58.2,86.8,59.1,84.5,59.5z"/>
<path d="M106.2,77.4c-2.5,0-4.6,2-4.6,4.5c0,2.5,2,4.6,4.5,4.6c0,0,0,0,0.1,0c2.5,0,4.5-2,4.6-4.5C110.8,79.5,108.7,77.4,106.2,77.4
	z M106.1,84.2c-1.3,0-2.3-1.1-2.2-2.3c0-1.2,1-2.2,2.3-2.2c0,0,0,0,0,0c1.3,0,2.3,1.1,2.2,2.3C108.4,83.3,107.4,84.3,106.1,84.2z"/>
<path class="st0" d="M125.8,79.1l-4.8-0.7c-0.3-1.4-0.9-2.7-1.6-3.9l3-3.9c0.4-0.4,0.3-1.1-0.1-1.5l-2.8-2.9c-0.4-0.4-1-0.5-1.5-0.1
	l-4,2.9c-1.2-0.7-2.5-1.3-3.9-1.7l-0.6-4.9c-0.1-0.6-0.5-1-1.1-1l-4-0.1c-0.6,0-1.1,0.4-1.1,1l-0.7,4.8c-1.4,0.3-2.7,0.9-3.9,1.6
	l-3.9-3c-0.5-0.4-1.1-0.3-1.5,0.1l-2.9,2.8c-0.4,0.4-0.5,1-0.1,1.5l2.9,4c-0.7,1.2-1.3,2.5-1.7,3.9l-4.9,0.6c-0.6,0.1-1,0.5-1,1.1
	l-0.1,4c0,0.6,0.4,1.1,1,1.1l4.8,0.7c0.3,1.4,0.9,2.7,1.6,3.9l-3,3.9c-0.4,0.4-0.3,1.1,0.1,1.5l2.8,2.9c0.4,0.4,1,0.5,1.5,0.1l4-2.9
	c1.2,0.7,2.5,1.3,3.9,1.7l0.6,4.9c0.1,0.6,0.5,1,1.1,1l4,0.1c0,0,0,0,0,0c0.6,0,1-0.4,1.1-1l0.7-4.8c1.4-0.3,2.7-0.9,3.9-1.6l3.9,3
	c0.4,0.4,1.1,0.3,1.5-0.1l2.9-2.8c0.4-0.4,0.5-1,0.1-1.5l-2.9-4c0.7-1.2,1.3-2.5,1.7-3.9l4.9-0.6c0.6-0.1,1-0.5,1-1.1l0.1-4
	C126.7,79.7,126.3,79.2,125.8,79.1z M124.4,83.3l-4.7,0.6c-0.5,0.1-0.9,0.4-1,0.9c-0.4,1.6-1,3.2-2,4.6c-0.3,0.4-0.3,0.9,0,1.3
	l2.8,3.8l-1.5,1.4l-3.7-2.9c-0.4-0.3-0.9-0.3-1.3-0.1c-1.4,0.9-3,1.5-4.6,1.8c-0.5,0.1-0.8,0.5-0.9,1l-0.7,4.6l-2,0l-0.6-4.7
	c-0.1-0.5-0.4-0.9-0.9-1c-1.6-0.4-3.2-1-4.6-2c-0.4-0.3-0.9-0.3-1.3,0l-3.8,2.8l-1.4-1.5l2.9-3.7c0.3-0.4,0.3-0.9,0.1-1.3
	c-0.9-1.4-1.5-3-1.8-4.6c-0.1-0.5-0.5-0.8-1-0.9l-4.6-0.7l0-2l4.7-0.6c0.5-0.1,0.9-0.4,1-0.9c0.4-1.6,1-3.2,2-4.6
	c0.3-0.4,0.3-0.9,0-1.3l-2.8-3.8l1.5-1.4l3.7,2.9c0.4,0.3,0.9,0.3,1.3,0.1c1.4-0.9,3-1.5,4.6-1.8c0.5-0.1,0.8-0.5,0.9-1l0.7-4.6l2,0
	l0.6,4.7c0.1,0.5,0.4,0.9,0.9,1c1.6,0.4,3.2,1,4.5,2c0.4,0.3,0.9,0.3,1.3,0l3.8-2.8L120,70l-2.9,3.7c-0.3,0.4-0.3,0.9-0.1,1.3
	c0.9,1.4,1.5,3,1.8,4.6c0.1,0.5,0.5,0.8,1,0.9l4.6,0.7L124.4,83.3z"/>
</svg>
