<?xml version="1.0" encoding="utf-8"?>
<!-- Generator: Adobe Illustrator 25.0.0, SVG Export Plug-In . SVG Version: 6.00 Build 0)  -->
<svg version="1.1" id="Layer_1" xmlns="http://www.w3.org/2000/svg" xmlns:xlink="http://www.w3.org/1999/xlink" x="0px" y="0px"
	 viewBox="0 0 141.2 141.2" style="enable-background:new 0 0 141.2 141.2;" xml:space="preserve">
<style type="text/css">
	.st0{fill:#010101;}
</style>
<path class="st0" d="M76.4,24.1c-7.5,0.9-14.7,3.6-20.9,8c-20.4,14.4-25.2,42.7-10.8,63c14.4,20.4,42.7,25.2,63,10.8
	c20.4-14.4,25.2-42.7,10.8-63C109,29.4,92.8,22.2,76.4,24.1z M76.8,27.7c15.1-1.8,30,4.9,38.8,17.3c13.3,18.8,8.9,44.7-9.9,58
	c-18.8,13.3-44.7,8.9-58-9.9c-13.3-18.8-8.9-44.7,9.9-58C63.3,31.1,69.9,28.5,76.8,27.7z M53.3,91.4c12.4,15.7,35.1,18.3,50.8,6
	c6.4-5,10.6-11.8,12.5-19c0.3-1-0.3-2-1.3-2.2c-1-0.3-2,0.3-2.2,1.3c-1.7,6.5-5.5,12.6-11.3,17.1c-14.1,11.2-34.6,8.7-45.7-5.4
	s-8.7-34.6,5.4-45.7s34.6-8.7,45.7,5.4c3.3,4.1,5.3,8.8,6.3,13.6c0.2,1,1.2,1.6,2.1,1.4c1-0.2,1.6-1.2,1.4-2.1c0,0,0,0,0,0
	c-1.1-5.3-3.4-10.5-7-15.1c-12.4-15.7-35.1-18.3-50.8-6S40.9,75.8,53.3,91.4z M78.9,40.2c-1,0.1-1.7,1-1.6,2l0.3,3.6
	c0.1,1,0.9,1.7,1.9,1.7s1.7-0.9,1.7-1.9c0,0,0,0,0-0.1l-0.3-3.6C80.9,40.9,80,40.1,78.9,40.2C79,40.2,79,40.2,78.9,40.2L78.9,40.2z
	 M60.6,49.9c-1,0.1-1.7,1-1.6,2c0,0.5,0.3,0.9,0.7,1.2l2.8,2.3c0.8,0.6,1.9,0.5,2.5-0.2c0.6-0.8,0.5-1.9-0.2-2.5l-2.8-2.3
	C61.6,50,61.1,49.8,60.6,49.9z M98.8,46.3c-0.5,0.1-0.9,0.3-1.2,0.7l-2.3,2.8c-0.6,0.8-0.5,1.9,0.2,2.5c0.8,0.6,1.9,0.5,2.5-0.2
	l2.3-2.8c0.6-0.8,0.6-1.9-0.2-2.5C99.8,46.4,99.3,46.3,98.8,46.3z M99.3,54.7c-0.3,0-0.7,0.1-1,0.3l-12.8,9.1
	c-1.2-1-2.8-1.5-4.5-1.3c-3.5,0.3-6,3.4-5.7,6.9c0,0.5,0.2,1,0.3,1.4l-2.4,1.7c-0.8,0.6-1,1.7-0.4,2.5c0.6,0.8,1.7,1,2.5,0.4
	l2.5-1.7c1.2,1,2.8,1.5,4.5,1.3c3.5-0.3,6-3.4,5.7-6.9c0-0.5-0.2-1-0.3-1.4l12.8-9c0.8-0.6,1-1.7,0.5-2.5
	C100.5,54.9,99.9,54.6,99.3,54.7L99.3,54.7z M81.4,66.3c1.5-0.1,2.8,0.9,3,2.5c0.1,1.5-0.9,2.8-2.5,3s-2.8-0.9-3-2.5
	S79.9,66.5,81.4,66.3z M54.5,69.7c-1,0.1-1.7,0.9-1.7,1.9s0.9,1.7,1.9,1.7c0,0,0,0,0.1,0l3.6-0.3c1-0.1,1.7-0.9,1.7-1.9
	c-0.1-1-0.9-1.7-1.9-1.7c0,0,0,0-0.1,0L54.5,69.7z M104.9,65.1c-1,0.1-1.7,0.9-1.7,1.9c0.1,1,0.9,1.7,1.9,1.7c0,0,0,0,0.1,0l3.6-0.3
	c1-0.1,1.7-0.9,1.7-1.9c-0.1-1-0.9-1.7-1.9-1.7c0,0,0,0-0.1,0L104.9,65.1z M99.5,82.2c-1,0.1-1.7,1-1.6,2c0,0.5,0.3,0.9,0.7,1.2
	l2.8,2.3c0.8,0.7,1.9,0.6,2.6-0.2c0.7-0.8,0.6-1.9-0.2-2.6c0,0,0,0-0.1,0l-2.8-2.3C100.5,82.3,100,82.2,99.5,82.2z M66.4,85.3
	c-0.5,0.1-0.9,0.3-1.2,0.7l-2.3,2.8c-0.7,0.8-0.6,1.9,0.2,2.6s1.9,0.6,2.6-0.2c0,0,0,0,0-0.1l2.3-2.8c0.6-0.8,0.6-1.9-0.2-2.5
	C67.4,85.4,66.9,85.2,66.4,85.3z M83.6,90.6c-1,0.1-1.7,1-1.6,2l0.3,3.6c0.1,1,0.9,1.7,1.9,1.7c1-0.1,1.7-0.9,1.7-1.9c0,0,0,0,0-0.1
	l-0.3-3.6C85.5,91.3,84.7,90.5,83.6,90.6C83.7,90.6,83.6,90.6,83.6,90.6L83.6,90.6z M114.5,71.8c0.6,0.8,1.7,1,2.5,0.4
	c0.4-0.3,0.7-0.8,0.7-1.4c0-0.6,0-1.2,0-1.9c0-1-0.8-1.8-1.8-1.8c-1,0-1.8,0.8-1.8,1.8c0,0,0,0,0,0c0,0.6,0,1.1,0,1.7
	C114.1,71.1,114.2,71.5,114.5,71.8z"/>
<path class="st0" d="M27.1,65.1H12.9c-1.3,0-2.4-1.1-2.4-2.4c0-1.3,1.1-2.4,2.4-2.4h14.2c1.3,0,2.4,1.1,2.4,2.4
	C29.4,64,28.4,65.1,27.1,65.1z"/>
<path class="st0" d="M28.7,81.2h-12c-1.1,0-2-0.9-2-2c0-1.1,0.9-2,2-2h12c1.1,0,2,0.9,2,2C30.7,80.3,29.8,81.2,28.7,81.2z"/>
<path class="st0" d="M33.7,94.1h-9.9c-0.9,0-1.6-0.7-1.6-1.6c0-0.9,0.7-1.6,1.6-1.6h9.9c0.9,0,1.6,0.7,1.6,1.6
	C35.3,93.3,34.6,94.1,33.7,94.1z"/>
<path class="st0" d="M21.2,42.9h12c1.1,0,2,0.9,2,2c0,1.1-0.9,2-2,2h-12c-1.1,0-2-0.9-2-2C19.2,43.8,20.1,42.9,21.2,42.9z"/>
</svg>
