<?xml version="1.0" encoding="utf-8"?>
<!-- Generator: Adobe Illustrator 25.0.0, SVG Export Plug-In . SVG Version: 6.00 Build 0)  -->
<svg version="1.1" id="Layer_1" xmlns="http://www.w3.org/2000/svg" xmlns:xlink="http://www.w3.org/1999/xlink" x="0px" y="0px"
	 viewBox="0 0 141.2 141.2" style="enable-background:new 0 0 141.2 141.2;" xml:space="preserve">
<path d="M32.2,92.1c-6.9,0-12.6-4.3-13.6-10h27.2C44.9,87.8,39.1,92.1,32.2,92.1z M45.2,78.8h-26l13-35.6L45.2,78.8z M71.1,20.8
	l2.7,6.5L72,29.7c-0.2,0.3-0.3,0.6-0.3,1v5c-0.2,0-0.4-0.1-0.6-0.1c-0.2,0-0.4,0-0.6,0.1v-5c0-0.3-0.1-0.7-0.3-1l-1.7-2.5L71.1,20.8
	z M73.2,41.1c0,1.1-0.9,2.1-2.1,2.1c-1.1,0-2.1-0.9-2.1-2.1S70,39,71.1,39C72.2,39,73.2,40,73.2,41.1z M108.9,52.3l13,35.6h-26
	L108.9,52.3z M108.9,101.3c-6.9,0-12.6-4.3-13.6-10h27.2C121.6,96.9,115.9,101.3,108.9,101.3z M125.9,88.9l-14.7-40.1
	c2.7-0.9,4.7-3.5,4.8-6.5c0-0.9-0.7-1.7-1.7-1.7c0,0,0,0,0,0c-0.9,0-1.7,0.8-1.7,1.7c0,2-1.6,3.6-3.7,3.6c-1.2,0-2.3-0.6-3-1.6
	c-0.3-0.4-0.7-0.7-1.2-0.8l-28.4-3.9c-0.2-0.8-0.7-1.5-1.2-2.1v-6.1l2-2.8c0.3-0.5,0.4-1.1,0.2-1.6l-4.6-11.2c-0.3-0.6-0.9-1-1.6-1
	c-0.7,0-1.3,0.4-1.6,1l-4.6,11.2c-0.2,0.5-0.1,1.2,0.2,1.6l2,2.8v6.1c-0.2,0.2-0.4,0.5-0.6,0.8l-29.6-4c-0.6-0.1-1.3,0.2-1.6,0.8
	c-0.7,1-1.8,1.6-3,1.6c-1.9,0-3.6-1.5-3.7-3.4c-0.1-0.9-0.9-1.6-1.8-1.6c-0.9,0.1-1.6,0.9-1.6,1.8c0.2,2.9,2.2,5.3,4.8,6.2
	L15.2,79.9c-0.1,0.2-0.1,0.3-0.1,0.5c0,0,0,0.1,0,0.1v0c0,0,0,0.1,0,0.1c0.1,8.3,7.7,14.9,17.1,14.9c9.4,0,17.1-6.8,17.1-15.1
	c0-0.3-0.1-0.5-0.2-0.7L34.5,39.5c1.1-0.4,2.1-1,2.9-1.9l28.2,3.8c0.1,1.2,0.5,2.3,1.3,3.1l-2,69.3c-4.9,0.7-15.1,3.1-16.8,10.7
	c-0.1,0.5,0,1,0.3,1.4c0.3,0.4,0.8,0.6,1.3,0.6h42.7c0.5,0,1-0.2,1.3-0.6c0.3-0.4,0.5-0.9,0.3-1.4c-1.7-7.5-11.9-9.9-16.8-10.7
	l-2-69.3c0.4-0.5,0.7-1,0.9-1.6l27.3,3.7c0.8,1,1.9,1.6,3.1,2.1L92,89c0,0,0,0,0,0l0,0.1c0,0.1,0,0.1,0,0.2c0,0.1-0.1,0.3-0.1,0.4
	c0,8.3,7.7,15.1,17.1,15.1c9.4,0,17.1-6.8,17.1-15.1C126.1,89.4,126,89.1,125.9,88.9z M75.4,117c1.3,0.1,11.1,1.4,14.4,6.2H52.3
	c3.3-4.8,13.2-6,14.4-6.2c0.9-0.1,1.5-0.8,1.5-1.6l2-68.9c0.3,0.1,0.5,0.1,0.8,0.1s0.6,0,0.8-0.1l2,68.9
	C73.9,116.2,74.6,116.9,75.4,117z"/>
</svg>
