<svg width="82" height="51" viewBox="0 0 82 51" fill="none" xmlns="http://www.w3.org/2000/svg">
<g clip-path="url(#clip0)">
<path fill-rule="evenodd" clip-rule="evenodd" d="M29.6069 45.4825H51.5536V5.44434H29.6069V45.4825Z" fill="#FF5F00"/>
<path fill-rule="evenodd" clip-rule="evenodd" d="M31.0006 25.4633C31.0006 17.3405 34.7469 10.1061 40.5805 5.44419C36.3138 2.03423 30.9309 0 25.0799 0C11.2283 0 0 11.4005 0 25.4633C0 39.5261 11.2283 50.9265 25.0799 50.9265C30.9309 50.9265 36.3138 48.8923 40.5805 45.4823C34.7469 40.8197 31.0006 33.586 31.0006 25.4633Z" fill="#EB001B"/>
<path fill-rule="evenodd" clip-rule="evenodd" d="M80.3779 41.242V40.2539H80.1236L79.8317 40.9336L79.5391 40.2539H79.2848V41.242H79.4638V40.4965L79.7383 41.1394H79.9244L80.1989 40.4951V41.242H80.3779ZM78.7678 41.242V40.4222H79.0939V40.2553H78.2648V40.4222H78.5901V41.242H78.7678ZM81.161 25.4633C81.161 39.5261 69.932 50.9265 56.0812 50.9265C50.2301 50.9265 44.8466 48.8923 40.5806 45.4823C46.4142 40.8204 50.1605 33.586 50.1605 25.4633C50.1605 17.3412 46.4142 10.1068 40.5806 5.44419C44.8466 2.03423 50.2301 0 56.0812 0C69.932 0 81.161 11.4005 81.161 25.4633Z" fill="#F79E1B"/>
</g>
<defs>
<clipPath id="clip0">
<rect width="82" height="51" fill="white"/>
</clipPath>
</defs>
</svg>
