<?xml version="1.0" encoding="utf-8"?>
<!-- Generator: Adobe Illustrator 25.0.0, SVG Export Plug-In . SVG Version: 6.00 Build 0)  -->
<svg version="1.1" id="Layer_1" xmlns="http://www.w3.org/2000/svg" xmlns:xlink="http://www.w3.org/1999/xlink" x="0px" y="0px"
	 viewBox="0 0 141.2 141.2" style="enable-background:new 0 0 141.2 141.2;" xml:space="preserve">
<g>
	<path d="M120.7,121.8H20.5c-6.7,0-12.2-5.6-12.2-12.2V20.5c0-0.7,0.4-1.1,1.1-1.1h100.2c0.7,0,1.1,0.4,1.1,1.1v89.1
		c0,0.7-0.4,1.1-1.1,1.1c-0.7,0-1.1-0.4-1.1-1.1v-88h-98v88c0,5.6,4.5,10,10,10h100.2c0.7,0,1.1,0.4,1.1,1.1
		C121.8,121.4,121.4,121.8,120.7,121.8z"/>
	<path d="M102.9,48.3H16c-0.7,0-1.1-0.4-1.1-1.1c0-0.7,0.4-1.1,1.1-1.1h86.9c0.7,0,1.1,0.4,1.1,1.1C104,47.9,103.6,48.3,102.9,48.3z
		 M120.7,121.8c-6.7,0-12.2-5.6-12.2-12.2V38.3c0-0.7,0.4-1.1,1.1-1.1h22.3c0.7,0,1.1,0.4,1.1,1.1v71.3
		C133,116.3,127.4,121.8,120.7,121.8z M110.7,39.4v70.2c0,5.6,4.5,10,10,10s10-4.5,10-10V39.4H110.7z M43.9,41.7
		c-0.4,0-0.7-0.2-0.9-0.4L36.1,31v9.6c0,0.7-0.4,1.1-1.1,1.1s-1.1-0.4-1.1-1.1V27.2c0-0.4,0.2-0.9,0.9-1.1c0.4-0.2,0.9,0,1.3,0.4
		L43,36.8v-9.6c0-0.7,0.4-1.1,1.1-1.1s1.1,0.4,1.1,1.1v13.4c0,0.4-0.2,0.9-0.9,1.1H43.9z M70.6,41.7c-0.4,0-0.9-0.2-1.1-0.7
		l-3.3-8.7l-3.3,8.5c-0.2,0.4-0.7,0.7-1.1,0.7c-0.4,0-0.9-0.4-0.9-0.9l-2.2-13.4c0-0.7,0.2-1.1,0.9-1.3c0.7,0,1.1,0.2,1.3,0.9
		l1.6,9.4l2.9-7.3c0.4-0.9,1.8-0.9,2,0l2.9,7.3l1.6-9.4c0-0.7,0.7-1.1,1.3-0.9c0.7,0,1.1,0.7,0.9,1.3l-2.2,13.4
		C71.7,41.2,71.3,41.7,70.6,41.7z M55,41.7h-6.7c-0.7,0-1.1-0.4-1.1-1.1V27.2c0-0.7,0.4-1.1,1.1-1.1H55c0.7,0,1.1,0.4,1.1,1.1
		c0,0.7-0.4,1.1-1.1,1.1h-5.6v11.1H55c0.7,0,1.1,0.4,1.1,1.1C56.1,41.2,55.7,41.7,55,41.7z"/>
	<path d="M52.8,35h-4.5c-0.7,0-1.1-0.4-1.1-1.1c0-0.7,0.4-1.1,1.1-1.1h4.5c0.7,0,1.1,0.4,1.1,1.1C53.9,34.5,53.5,35,52.8,35z
		 M81.7,41.7h-4.5c-0.7,0-1.1-0.4-1.1-1.1c0-0.7,0.4-1.1,1.1-1.1h4.5c0.7,0,1.1-0.4,1.1-1.1v-2.2c0-0.7-0.4-1.1-1.1-1.1h-2.2
		c-1.8,0-3.3-1.6-3.3-3.3v-2.2c0-1.8,1.6-3.3,3.3-3.3H84c0.7,0,1.1,0.4,1.1,1.1c0,0.7-0.4,1.1-1.1,1.1h-4.5c-0.7,0-1.1,0.4-1.1,1.1
		v2.2c0,0.7,0.4,1.1,1.1,1.1h2.2c1.8,0,3.3,1.6,3.3,3.3v2.2C85.1,40.1,83.5,41.7,81.7,41.7z M40.3,55H25c-0.7,0-1.1-0.4-1.1-1.1
		c0-0.7,0.4-1.1,1.1-1.1h15.4c0.7,0,1.1,0.4,1.1,1.1C41.4,54.6,41,55,40.3,55z M40.3,61.7H16c-0.7,0-1.1-0.4-1.1-1.1
		c0-0.7,0.4-1.1,1.1-1.1h24.3c0.7,0,1.1,0.4,1.1,1.1C41.4,61.3,41,61.7,40.3,61.7z M40.3,68.4H16c-0.7,0-1.1-0.4-1.1-1.1
		c0-0.7,0.4-1.1,1.1-1.1h24.3c0.7,0,1.1,0.4,1.1,1.1C41.4,67.9,41,68.4,40.3,68.4z M40.3,75.1H16c-0.7,0-1.1-0.4-1.1-1.1
		c0-0.7,0.4-1.1,1.1-1.1h24.3c0.7,0,1.1,0.4,1.1,1.1C41.4,74.6,41,75.1,40.3,75.1z M40.3,81.7H16c-0.7,0-1.1-0.4-1.1-1.1
		c0-0.7,0.4-1.1,1.1-1.1h24.3c0.7,0,1.1,0.4,1.1,1.1C41.4,81.3,41,81.7,40.3,81.7z M40.3,88.4H16c-0.7,0-1.1-0.4-1.1-1.1
		c0-0.7,0.4-1.1,1.1-1.1h24.3c0.7,0,1.1,0.4,1.1,1.1C41.4,88,41,88.4,40.3,88.4z M40.3,95.1H16c-0.7,0-1.1-0.4-1.1-1.1
		c0-0.7,0.4-1.1,1.1-1.1h24.3c0.7,0,1.1,0.4,1.1,1.1C41.4,94.7,41,95.1,40.3,95.1z M40.3,101.8H16c-0.7,0-1.1-0.4-1.1-1.1
		c0-0.7,0.4-1.1,1.1-1.1h24.3c0.7,0,1.1,0.4,1.1,1.1C41.4,101.3,41,101.8,40.3,101.8z M40.3,108.5H16c-0.7,0-1.1-0.4-1.1-1.1
		c0-0.7,0.4-1.1,1.1-1.1h24.3c0.7,0,1.1,0.4,1.1,1.1C41.4,108,41,108.5,40.3,108.5z M40.3,115.2h-22c-0.7,0-1.1-0.4-1.1-1.1
		c0-0.7,0.4-1.1,1.1-1.1h22c0.7,0,1.1,0.4,1.1,1.1C41.4,114.7,41,115.2,40.3,115.2z M71.5,88.4H47.2c-0.7,0-1.1-0.4-1.1-1.1
		c0-0.7,0.4-1.1,1.1-1.1h24.3c0.7,0,1.1,0.4,1.1,1.1C72.6,88,72.2,88.4,71.5,88.4z M71.5,95.1H47.2c-0.7,0-1.1-0.4-1.1-1.1
		c0-0.7,0.4-1.1,1.1-1.1h24.3c0.7,0,1.1,0.4,1.1,1.1C72.6,94.7,72.2,95.1,71.5,95.1z M71.5,101.8H47.2c-0.7,0-1.1-0.4-1.1-1.1
		c0-0.7,0.4-1.1,1.1-1.1h24.3c0.7,0,1.1,0.4,1.1,1.1C72.6,101.3,72.2,101.8,71.5,101.8z M71.5,108.5H47.2c-0.7,0-1.1-0.4-1.1-1.1
		c0-0.7,0.4-1.1,1.1-1.1h24.3c0.7,0,1.1,0.4,1.1,1.1C72.6,108,72.2,108.5,71.5,108.5z M71.5,115.2H47.2c-0.7,0-1.1-0.4-1.1-1.1
		c0-0.7,0.4-1.1,1.1-1.1h24.3c0.7,0,1.1,0.4,1.1,1.1C72.6,114.7,72.2,115.2,71.5,115.2z M102.7,88.4H78.4c-0.7,0-1.1-0.4-1.1-1.1
		c0-0.7,0.4-1.1,1.1-1.1h24.3c0.7,0,1.1,0.4,1.1,1.1C103.8,88,103.4,88.4,102.7,88.4z M102.7,95.1H78.4c-0.7,0-1.1-0.4-1.1-1.1
		c0-0.7,0.4-1.1,1.1-1.1h24.3c0.7,0,1.1,0.4,1.1,1.1C103.8,94.7,103.4,95.1,102.7,95.1z M102.7,101.8H78.4c-0.7,0-1.1-0.4-1.1-1.1
		c0-0.7,0.4-1.1,1.1-1.1h24.3c0.7,0,1.1,0.4,1.1,1.1C103.8,101.3,103.4,101.8,102.7,101.8z M102.7,108.5H78.4
		c-0.7,0-1.1-0.4-1.1-1.1c0-0.7,0.4-1.1,1.1-1.1h24.3c0.7,0,1.1,0.4,1.1,1.1C103.8,108,103.4,108.5,102.7,108.5z M102.7,115.2H78.4
		c-0.7,0-1.1-0.4-1.1-1.1c0-0.7,0.4-1.1,1.1-1.1h24.3c0.7,0,1.1,0.4,1.1,1.1C103.8,114.7,103.4,115.2,102.7,115.2z M102.7,55H78.4
		c-0.7,0-1.1-0.4-1.1-1.1c0-0.7,0.4-1.1,1.1-1.1h24.3c0.7,0,1.1,0.4,1.1,1.1C103.8,54.6,103.4,55,102.7,55z M102.7,61.7H78.4
		c-0.7,0-1.1-0.4-1.1-1.1c0-0.7,0.4-1.1,1.1-1.1h24.3c0.7,0,1.1,0.4,1.1,1.1C103.8,61.3,103.4,61.7,102.7,61.7z M102.7,68.4H78.4
		c-0.7,0-1.1-0.4-1.1-1.1c0-0.7,0.4-1.1,1.1-1.1h24.3c0.7,0,1.1,0.4,1.1,1.1C103.8,67.9,103.4,68.4,102.7,68.4z M102.7,75.1H78.4
		c-0.7,0-1.1-0.4-1.1-1.1c0-0.7,0.4-1.1,1.1-1.1h24.3c0.7,0,1.1,0.4,1.1,1.1C103.8,74.6,103.4,75.1,102.7,75.1z M102.7,81.7H78.4
		c-0.7,0-1.1-0.4-1.1-1.1c0-0.7,0.4-1.1,1.1-1.1h24.3c0.7,0,1.1,0.4,1.1,1.1C103.8,81.3,103.4,81.7,102.7,81.7z M71.5,81.5H47.2
		c-0.7,0-1.1-0.4-1.1-1.1V53.9c0-0.7,0.4-1.1,1.1-1.1h24.3c0.7,0,1.1,0.4,1.1,1.1v26.5C72.6,81.1,72.2,81.5,71.5,81.5z M48.3,79.3
		h22V55h-22V79.3z"/>
	<path d="M71.5,81.5H47.2c-0.4,0-0.9-0.2-1.1-0.7c-0.2-0.4,0-0.9,0.2-1.1L65,62.2c0.4-0.4,1.1-0.4,1.6,0l5.3,5.3
		c0.2,0.2,0.2,0.4,0.2,0.9v12C72.6,81.1,72.2,81.5,71.5,81.5z M50.1,79.3h20.3V68.8l-4.2-4.2L50.1,79.3z"/>
	<path d="M47.2,81.5h-0.4c-0.4-0.2-0.7-0.7-0.7-1.1v-9.8c0-0.2,0.2-0.7,0.2-0.9l7.6-7.6c0.4-0.4,1.1-0.4,1.6,0l5.3,5.3
		c0.2,0.2,0.2,0.4,0.2,0.9s-0.2,0.7-0.4,0.9L47.5,81.5H47.2z M48.3,71.1V78l10.2-9.6l-3.8-3.8L48.3,71.1z"/>
</g>
</svg>
