<?xml version="1.0" encoding="utf-8"?>
<!-- Generator: Adobe Illustrator 25.0.0, SVG Export Plug-In . SVG Version: 6.00 Build 0)  -->
<svg version="1.1" id="Layer_1" xmlns="http://www.w3.org/2000/svg" xmlns:xlink="http://www.w3.org/1999/xlink" x="0px" y="0px"
	 viewBox="0 0 141.2 141.2" style="enable-background:new 0 0 141.2 141.2;" xml:space="preserve">
<style type="text/css">
	.st0{fill:none;stroke:#000000;stroke-width:2.7;}
</style>
<path class="st0" d="M78.8,44v1.8h1.8h20c1.6,0,2.8,0.5,3.6,1.3c0.8,0.8,1.3,2,1.3,3.6v6.7c0,1.6-0.5,2.8-1.3,3.6s-2,1.3-3.6,1.3
	h-20h-1.8V64v53.3c0,1.6-0.5,2.8-1.3,3.6c-0.8,0.8-2,1.3-3.6,1.3h-6.7c-1.6,0-2.8-0.5-3.6-1.3c-0.8-0.8-1.3-2-1.3-3.6V64v-1.8h-1.8
	h-20c-1.6,0-2.8-0.5-3.6-1.3s-1.3-2-1.3-3.6v-6.7c0-1.6,0.5-2.8,1.3-3.6s2-1.3,3.6-1.3h20h1.8V44V24c0-1.6,0.5-2.8,1.3-3.6
	c0.8-0.8,2-1.3,3.6-1.3h6.7c1.6,0,2.8,0.5,3.6,1.3c0.8,0.8,1.3,2,1.3,3.6V44z"/>
</svg>
