<svg width="27" height="26" viewBox="0 0 27 26" fill="none" xmlns="http://www.w3.org/2000/svg">
<path d="M21.55 4.06954L3.25394 9.22997C3.10002 9.27338 2.96302 9.36274 2.86124 9.4861C2.75947 9.60947 2.69777 9.76095 2.68439 9.92032C2.67102 10.0797 2.7066 10.2393 2.78639 10.3779C2.86618 10.5165 2.98637 10.6275 3.1309 10.6959L11.5373 14.6779C11.7012 14.7556 11.8333 14.8876 11.9109 15.0516L15.8929 23.4579C15.9614 23.6025 16.0723 23.7227 16.2109 23.8024C16.3495 23.8822 16.5092 23.9178 16.6685 23.9044C16.8279 23.8911 16.9794 23.8294 17.1027 23.7276C17.2261 23.6258 17.3155 23.4888 17.3589 23.3349L22.5193 5.03883C22.5572 4.90443 22.5586 4.76236 22.5233 4.62725C22.4881 4.49213 22.4175 4.36886 22.3187 4.27012C22.22 4.17138 22.0967 4.10075 21.9616 4.06549C21.8265 4.03023 21.6844 4.03163 21.55 4.06954Z" stroke="white" stroke-width="1.57109" stroke-linecap="round" stroke-linejoin="round"/>
<path d="M11.7908 14.7982L16.2345 10.3545" stroke="white" stroke-width="1.57109" stroke-linecap="round" stroke-linejoin="round"/>
</svg>
