<svg width="148" height="40" viewBox="0 0 148 40" fill="none" xmlns="http://www.w3.org/2000/svg">
<path d="M55.1549 8.18115H46.9923C46.722 8.18098 46.4606 8.27882 46.2551 8.45706C46.0497 8.63529 45.9136 8.88219 45.8715 9.15327L42.5702 30.4102C42.555 30.5089 42.561 30.6097 42.5879 30.7057C42.6148 30.8018 42.6618 30.8907 42.7258 30.9665C42.7898 31.0423 42.8692 31.1032 42.9585 31.1448C43.0479 31.1865 43.145 31.208 43.2433 31.2078H47.1403C47.4107 31.2079 47.6722 31.1099 47.8777 30.9315C48.0832 30.753 48.2192 30.5058 48.261 30.2345L49.1514 24.5012C49.1932 24.2301 49.329 23.983 49.5342 23.8046C49.7395 23.6261 50.0007 23.528 50.2709 23.5278H52.855C58.2319 23.5278 61.3351 20.8854 62.1456 15.649C62.5108 13.3581 62.1611 11.5581 61.1048 10.2975C59.9446 8.91327 57.887 8.18115 55.1549 8.18115ZM56.0966 15.9448C55.6503 18.9193 53.4124 18.9193 51.2485 18.9193H50.0167L50.8808 13.3642C50.9061 13.2017 50.9877 13.0536 51.1109 12.9468C51.2341 12.8399 51.3908 12.7812 51.5528 12.7812H52.1174C53.5914 12.7812 54.9819 12.7812 55.7004 13.6345C56.1289 14.1436 56.2602 14.8999 56.0966 15.9448ZM79.5546 15.849H75.6458C75.4838 15.849 75.3271 15.9078 75.2039 16.0146C75.0807 16.1215 74.9991 16.2695 74.9738 16.4321L74.8007 17.5424L74.5274 17.1399C73.6812 15.8927 71.7942 15.4757 69.9108 15.4757C65.5913 15.4757 61.9021 18.7981 61.1836 23.4587C60.81 25.7836 61.3411 28.0066 62.6397 29.5569C63.8308 30.9824 65.5352 31.5763 67.5631 31.5763C71.0434 31.5763 72.9734 29.3036 72.9734 29.3036L72.7992 30.4066C72.7836 30.5052 72.7893 30.6061 72.8159 30.7023C72.8425 30.7984 72.8892 30.8876 72.953 30.9636C73.0167 31.0397 73.096 31.1008 73.1852 31.1427C73.2745 31.1847 73.3716 31.2065 73.4699 31.2066H76.9909C77.2613 31.2067 77.5229 31.1087 77.7284 30.9302C77.9339 30.7518 78.0698 30.5046 78.1116 30.2333L80.2242 16.6466C80.2398 16.5482 80.2341 16.4476 80.2076 16.3516C80.1811 16.2556 80.1344 16.1667 80.0707 16.0908C80.0071 16.015 79.928 15.9541 79.8389 15.9124C79.7497 15.8706 79.6528 15.849 79.5546 15.849ZM74.1061 23.5751C73.7289 25.843 71.9565 27.3654 69.6959 27.3654C68.5609 27.3654 67.6538 26.9957 67.0713 26.2951C66.4936 25.5993 66.274 24.609 66.4578 23.506C66.8099 21.2575 68.6122 19.6854 70.8382 19.6854C71.9482 19.6854 72.8505 20.0599 73.4449 20.7666C74.0405 21.4805 74.2768 22.4769 74.1061 23.5751ZM100.373 15.849H96.4445C96.2593 15.8493 96.0769 15.8955 95.9132 15.9836C95.7495 16.0717 95.6095 16.199 95.5052 16.3545L90.0877 24.4587L87.7913 16.6708C87.7208 16.4333 87.5769 16.2252 87.3809 16.0771C87.1848 15.9291 86.9471 15.8492 86.7028 15.849H82.8429C82.7345 15.8487 82.6277 15.8747 82.5312 15.9248C82.4347 15.975 82.3515 16.0478 82.2883 16.1372C82.2251 16.2266 82.1839 16.33 82.1681 16.4388C82.1522 16.5477 82.1622 16.6588 82.1972 16.763L86.5238 29.6575L82.4562 35.489C82.3839 35.5924 82.341 35.714 82.3322 35.8405C82.3235 35.967 82.3491 36.0935 82.4065 36.2062C82.4638 36.3188 82.5505 36.4133 82.6572 36.4792C82.7638 36.5451 82.8863 36.58 83.0112 36.5799H86.9343C87.1175 36.5802 87.298 36.5353 87.4604 36.4492C87.6227 36.3631 87.7621 36.2382 87.8665 36.0854L100.931 16.9339C101.002 16.8303 101.043 16.7089 101.051 16.5831C101.059 16.4572 101.033 16.3316 100.975 16.2198C100.918 16.108 100.831 16.0144 100.725 15.949C100.619 15.8837 100.497 15.8491 100.373 15.849Z" fill="#253B80"/>
<path d="M113.378 8.18041H105.214C104.944 8.18053 104.683 8.2785 104.478 8.45671C104.272 8.63492 104.136 8.88166 104.094 9.15253L100.793 30.4095C100.778 30.508 100.784 30.6086 100.81 30.7046C100.837 30.8006 100.884 30.8895 100.947 30.9653C101.011 31.0411 101.09 31.102 101.179 31.1437C101.269 31.1855 101.366 31.2071 101.464 31.2071H105.653C105.842 31.2068 106.025 31.138 106.168 31.0132C106.312 30.8883 106.407 30.7155 106.436 30.5259L107.373 24.5004C107.415 24.2293 107.551 23.9823 107.756 23.8038C107.961 23.6254 108.222 23.5272 108.493 23.5271H111.075C116.454 23.5271 119.556 20.8847 120.367 15.6483C120.734 13.3574 120.382 11.5574 119.325 10.2968C118.166 8.91253 116.11 8.18041 113.378 8.18041ZM114.32 15.944C113.874 18.9186 111.636 18.9186 109.471 18.9186H108.241L109.106 13.3634C109.131 13.2009 109.212 13.0528 109.335 12.9458C109.458 12.8389 109.615 12.7802 109.777 12.7804H110.341C111.814 12.7804 113.206 12.7804 113.924 13.6337C114.353 14.1428 114.483 14.8992 114.32 15.944ZM137.776 15.8483H133.87C133.708 15.8478 133.551 15.9064 133.428 16.0134C133.305 16.1204 133.224 16.2687 133.199 16.4313L133.026 17.5416L132.751 17.1392C131.905 15.8919 130.019 15.475 128.136 15.475C123.817 15.475 120.129 18.7974 119.41 23.458C119.038 25.7828 119.566 28.0059 120.865 29.5562C122.058 30.9816 123.76 31.5756 125.788 31.5756C129.269 31.5756 131.199 29.3028 131.199 29.3028L131.024 30.4059C131.009 30.5047 131.015 30.6058 131.041 30.7021C131.068 30.7984 131.115 30.8877 131.179 30.9638C131.243 31.0399 131.323 31.1009 131.412 31.1427C131.502 31.1845 131.599 31.2061 131.698 31.2059H135.217C135.488 31.2057 135.749 31.1076 135.954 30.9291C136.159 30.7507 136.295 30.5036 136.337 30.2325L138.451 16.6459C138.466 16.5472 138.459 16.4463 138.432 16.3503C138.405 16.2543 138.358 16.1653 138.294 16.0895C138.23 16.0137 138.151 15.953 138.061 15.9113C137.972 15.8697 137.875 15.8482 137.776 15.8483ZM132.328 23.5743C131.953 25.8422 130.178 27.3647 127.918 27.3647C126.785 27.3647 125.875 26.995 125.293 26.2943C124.715 25.5986 124.498 24.6083 124.68 23.5053C125.034 21.2568 126.834 19.6847 129.06 19.6847C130.17 19.6847 131.072 20.0592 131.667 20.7659C132.265 21.4798 132.501 22.4762 132.328 23.5743ZM142.385 8.76344L139.034 30.4095C139.019 30.508 139.025 30.6086 139.051 30.7046C139.078 30.8006 139.125 30.8895 139.189 30.9653C139.252 31.0411 139.332 31.102 139.421 31.1437C139.51 31.1855 139.607 31.2071 139.705 31.2071H143.073C143.633 31.2071 144.108 30.795 144.194 30.2337L147.498 8.97799C147.513 8.87946 147.507 8.77873 147.481 8.68271C147.454 8.5867 147.407 8.49768 147.343 8.42178C147.28 8.34588 147.201 8.2849 147.111 8.24303C147.022 8.20115 146.925 8.17938 146.827 8.1792H143.055C142.893 8.17978 142.737 8.23889 142.614 8.34595C142.491 8.45301 142.41 8.60101 142.385 8.76344Z" fill="#179BD7"/>
<path d="M8.67257 35.3382L9.29679 31.3115L7.90631 31.2788H1.2666L5.88086 1.56606C5.8946 1.47528 5.94 1.39253 6.00879 1.3329C6.07759 1.27327 6.16519 1.24073 6.25563 1.24122H17.4511C21.1678 1.24122 23.7328 2.02667 25.0719 3.57697C25.6997 4.30425 26.0996 5.06425 26.2929 5.90061C26.4958 6.77819 26.4994 7.82667 26.3013 9.10546L26.287 9.19879V10.0182L26.9148 10.3794C27.394 10.626 27.8248 10.9596 28.1859 11.3636C28.723 11.9855 29.0703 12.7758 29.2171 13.7127C29.3687 14.6764 29.3186 15.823 29.0703 17.1212C28.7839 18.6145 28.3208 19.9152 27.6953 20.9794C27.1435 21.9328 26.4016 22.7585 25.5171 23.4036C24.6864 24.0024 23.6993 24.457 22.5834 24.7479C21.502 25.0339 20.2691 25.1782 18.9168 25.1782H18.0455C17.4225 25.1782 16.8173 25.4061 16.3423 25.8146C15.868 26.2274 15.5533 26.7978 15.4543 27.4242L15.3887 27.7867L14.2858 34.8836L14.2357 35.1442C14.2226 35.2267 14.1999 35.2679 14.1665 35.2958C14.1341 35.3226 14.0937 35.3376 14.0519 35.3382H8.67257Z" fill="#253B80"/>
<path d="M27.509 9.29346C27.4756 9.51043 27.4374 9.73225 27.3944 9.96012C25.918 17.6583 20.8669 20.3177 14.4158 20.3177H11.1312C10.3422 20.3177 9.67742 20.8995 9.55449 21.6898L7.87278 32.5213L7.39655 35.5916C7.37758 35.7134 7.38482 35.8379 7.41778 35.9566C7.45074 36.0753 7.50863 36.1853 7.58747 36.2791C7.6663 36.3728 7.76421 36.4481 7.87445 36.4998C7.9847 36.5515 8.10465 36.5782 8.22607 36.5783H14.0518C14.7416 36.5783 15.3277 36.0692 15.4363 35.3783L15.4936 35.0777L16.5905 28.0086L16.6609 27.6207C16.7683 26.9274 17.3555 26.4183 18.0454 26.4183H18.9167C24.561 26.4183 28.9795 24.091 30.2709 17.3565C30.8104 14.5432 30.5311 12.1941 29.1036 10.5419C28.6512 10.0309 28.1108 9.6078 27.509 9.29346Z" fill="#179BD7"/>
<path d="M25.9643 8.66801C25.4929 8.52951 25.0133 8.42142 24.5285 8.34437C23.5704 8.19485 22.6022 8.1231 21.6329 8.12983H12.8579C12.524 8.12956 12.201 8.25064 11.9473 8.47117C11.6936 8.6917 11.5259 8.99713 11.4746 9.33225L9.60791 21.3395L9.5542 21.6898C9.61235 21.3076 9.8033 20.9591 10.0925 20.7074C10.3817 20.4558 10.75 20.3175 11.1309 20.3177H14.4155C20.8666 20.3177 25.9177 17.6571 27.3942 9.96013C27.4383 9.73225 27.4753 9.51043 27.5087 9.29346C27.1192 9.08598 26.7131 8.91204 26.2949 8.77346C26.1853 8.73652 26.075 8.70136 25.9643 8.66801Z" fill="#222D65"/>
<path d="M11.4747 9.33212C11.5255 8.99691 11.6931 8.69133 11.9469 8.47091C12.2007 8.2505 12.524 8.12986 12.858 8.13091H21.633C22.6725 8.13091 23.6429 8.2 24.5285 8.34546C25.1278 8.44111 25.7188 8.58417 26.2961 8.77333C26.7318 8.92 27.1364 9.09333 27.51 9.29333C27.9492 6.44848 27.5064 4.51152 25.9918 2.75758C24.322 0.826667 21.3083 0 17.452 0H6.25647C5.46873 0 4.79676 0.581818 4.67502 1.37333L0.0118277 31.3915C-0.00989266 31.5309 -0.00162879 31.6734 0.0360508 31.8092C0.0737305 31.945 0.139932 32.0709 0.230101 32.1783C0.320269 32.2856 0.432266 32.3719 0.558387 32.4311C0.684507 32.4903 0.821758 32.521 0.960699 32.5212H7.87254L9.60796 21.3394L11.4747 9.33212Z" fill="#253B80"/>
</svg>
