<?xml version="1.0" encoding="utf-8"?>
<!-- Generator: Adobe Illustrator 25.0.0, SVG Export Plug-In . SVG Version: 6.00 Build 0)  -->
<svg version="1.1" id="Layer_1" xmlns="http://www.w3.org/2000/svg" xmlns:xlink="http://www.w3.org/1999/xlink" x="0px" y="0px"
	 viewBox="0 0 30.2 30.3" style="enable-background:new 0 0 30.2 30.3;" xml:space="preserve">
<style type="text/css">
	.st0{fill:#666666;}
</style>
<path class="st0" d="M30.1,22c-0.2-0.4-0.6-0.6-1.4-0.8c-0.8-0.4-4.4-2.2-5.2-2.4c-0.6-0.2-1.2-0.4-1.6,0.4s-2,2.4-2.4,3
	s-0.8,0.6-1.6,0.2c-0.8-0.4-3.2-1.2-6-3.8c-2.2-2-3.8-4.4-4.2-5.2c-0.4-0.8,0-1.2,0.4-1.6S9,11,9.4,10.4C9.8,10,10,9.6,10.2,9.2
	c0.2-0.6,0.2-1,0-1.4s-1.6-4-2.4-5.6C7.2,0.9,6.6,1.1,6.2,1.1s-1,0-1.4,0c-0.6,0-1.4,0.2-2,1S0.3,4.7,0.3,8.2s2.6,7.2,3,7.7
	c0.4,0.6,5.2,7.9,12.7,11.3c1.8,0.8,3.2,1.2,4.2,1.6c1.8,0.6,3.4,0.4,4.8,0.2c1.4-0.2,4.4-1.8,5-3.6C30.3,23.7,30.3,22.2,30.1,22z"
	/>
</svg>
