<?xml version="1.0" encoding="utf-8"?>
<!-- Generator: Adobe Illustrator 25.0.0, SVG Export Plug-In . SVG Version: 6.00 Build 0)  -->
<svg version="1.1" id="Layer_1" xmlns="http://www.w3.org/2000/svg" xmlns:xlink="http://www.w3.org/1999/xlink" x="0px" y="0px"
	 viewBox="0 0 141.2 141.2" style="enable-background:new 0 0 141.2 141.2;" xml:space="preserve">
<g>
	<path d="M70.6,13.3C39,13.3,13.3,39,13.3,70.6s25.7,57.3,57.3,57.3s57.3-25.7,57.3-57.3C127.9,39,102.2,13.3,70.6,13.3z M70.6,15.8
		c30.3,0,54.8,24.5,54.8,54.8s-24.5,54.8-54.8,54.8s-54.8-24.5-54.8-54.8C15.8,40.3,40.3,15.8,70.6,15.8z M91.1,39.2
		c-1.2,0-2.3,0.5-3,1.4c-0.1,0-0.2,0-0.3,0.1L64.4,51.1c-0.5-0.6-1.2-0.9-2-0.9H40.6c-1.5,0-2.7,1.2-2.7,2.7v2.7h-4.1
		c-0.4,0-0.7,0.1-1,0.4c-0.3,0.3-0.4,0.6-0.4,1v8.2c0,0.4,0.1,0.7,0.4,1c0.3,0.3,0.6,0.4,1,0.4h4.1v2.7c0,1.5,1.2,2.7,2.7,2.7h2.7
		v5.5h4.1V99c0,2.3,1.8,4.3,4.1,4.3s4.1-2,4.1-4.3v-7.9H61V80.2h-5.5v-2.7h4.1V72h2.7c0.8,0,1.5-0.4,2-0.9l23.4,10.4
		c0.1,0,0.2,0.1,0.3,0.1c0.7,0.8,1.8,1.4,3,1.4c2.3,0,4.1-2,4.1-4.3v-9.4c2.7,0,5.3-1.3,6.8-3.7c1.8-2.8,1.8-6.4-0.1-9.1
		c-1.5-2.3-4.1-3.6-6.8-3.6v-9.4C95.1,41.2,93.4,39.2,91.1,39.2z M91.1,42c0.7,0,1.4,0.6,1.4,1.6v35.1c0,0.9-0.6,1.6-1.4,1.6
		c-0.7,0-1.4-0.6-1.4-1.6V43.5C89.7,42.6,90.3,42,91.1,42z M87,44.1v34l-21.8-9.7V53.8L87,44.1z M106.6,50.5l-3.9,3.9l1.9,1.9
		l3.9-3.9L106.6,50.5z M40.6,52.9h21.8v2.7H48.8v2.7h13.6v5.5H48.8v2.7h13.6v2.7H40.6v-3.9c0-0.1,0-0.2,0-0.2V57c0-0.1,0-0.2,0-0.2
		V52.9z M95.7,55.6c1.6,0.2,3.1,1,4,2.4c1.2,1.8,1.3,4.2,0,6.1c-1,1.6-2.7,2.4-4.6,2.4V55.7C95.3,55.7,95.5,55.6,95.7,55.6z
		 M35.1,58.3h2.7v5.5h-2.7V58.3z M106.1,59.7v2.7h5.5v-2.7H106.1z M104.6,65.9l-1.9,1.9l3.9,3.9l1.9-1.9L104.6,65.9z M46,72h10.9
		v2.7H46V72z M50.1,77.4h2.7v4.1V91v8c0,1-0.7,1.6-1.4,1.6S50,100,50,99V77.4H50.1z M55.6,82.9h2.7v5.5h-2.7V82.9z"/>
</g>
</svg>
