<svg width="108" height="45" viewBox="0 0 108 45" fill="none" xmlns="http://www.w3.org/2000/svg">
<path fill-rule="evenodd" clip-rule="evenodd" d="M107.82 23.2417C107.82 15.5545 104.106 9.48877 97.0083 9.48877C89.8802 9.48877 85.5674 15.5545 85.5674 23.1816C85.5674 32.2201 90.6589 36.7844 97.9667 36.7844C101.531 36.7844 104.226 35.9736 106.263 34.8325V28.8269C104.226 29.8479 101.89 30.4785 98.9251 30.4785C96.02 30.4785 93.4442 29.4575 93.1148 25.9142H107.76C107.76 25.5238 107.82 23.9623 107.82 23.2417ZM93.025 20.389C93.025 16.9958 95.0915 15.5845 96.9784 15.5845C98.8053 15.5845 100.752 16.9958 100.752 20.389H93.025Z" fill="#32325D"/>
<path fill-rule="evenodd" clip-rule="evenodd" d="M74.0068 9.48877C71.0717 9.48877 69.1848 10.8701 68.1366 11.831L67.7472 9.96922H61.1582V44.982L68.6457 43.3906L68.6757 34.8926C69.7539 35.6733 71.3412 36.7844 73.9768 36.7844C79.3379 36.7844 84.2198 32.4603 84.2198 22.9414C84.1898 14.2332 79.248 9.48877 74.0068 9.48877ZM72.2098 30.1782C70.4427 30.1782 69.3945 29.5476 68.6757 28.7668L68.6457 17.6264C69.4244 16.7556 70.5026 16.155 72.2098 16.155C74.9352 16.155 76.8221 19.2179 76.8221 23.1516C76.8221 27.1754 74.9652 30.1782 72.2098 30.1782Z" fill="#32325D"/>
<path fill-rule="evenodd" clip-rule="evenodd" d="M50.8555 7.71724L58.3729 6.09571V0L50.8555 1.59149V7.71724Z" fill="#32325D"/>
<path d="M58.3729 9.99951H50.8555V36.2742H58.3729V9.99951Z" fill="#32325D"/>
<path fill-rule="evenodd" clip-rule="evenodd" d="M42.7985 12.2214L42.3193 9.99935H35.8501V36.274H43.3376V18.4673C45.1047 16.1551 48.0997 16.5755 49.0281 16.9058V9.99935C48.0697 9.63902 44.5656 8.97839 42.7985 12.2214Z" fill="#32325D"/>
<path fill-rule="evenodd" clip-rule="evenodd" d="M27.8236 3.4834L20.5158 5.04486L20.4858 29.0974C20.4858 33.5416 23.8103 36.8147 28.2429 36.8147C30.6988 36.8147 32.4958 36.3642 33.4842 35.8237V29.728C32.5258 30.1184 27.7937 31.4997 27.7937 27.0555V16.3955H33.4842V9.99951H27.7937L27.8236 3.4834Z" fill="#32325D"/>
<path fill-rule="evenodd" clip-rule="evenodd" d="M7.57737 17.6264C7.57737 16.4553 8.53578 16.0049 10.1231 16.0049C12.3993 16.0049 15.2745 16.6955 17.5507 17.9267V10.8701C15.0649 9.87914 12.609 9.48877 10.1231 9.48877C4.04326 9.48877 0 12.6718 0 17.9867C0 26.2745 11.381 24.9533 11.381 28.5266C11.381 29.9079 10.183 30.3583 8.50583 30.3583C6.01997 30.3583 2.84526 29.3374 0.32945 27.9561V35.1028C3.11481 36.3039 5.93012 36.8144 8.50583 36.8144C14.7354 36.8144 19.0183 33.7215 19.0183 28.3464C18.9884 19.3981 7.57737 20.9896 7.57737 17.6264Z" fill="#32325D"/>
</svg>
