<svg width="116" height="38" viewBox="0 0 116 38" fill="none" xmlns="http://www.w3.org/2000/svg">
<g clip-path="url(#clip0)">
<path d="M50.2664 37.452H40.8696L46.7471 0.666992H56.1434L50.2664 37.452Z" fill="#00579F"/>
<path d="M84.331 1.56608C82.4775 0.821792 79.5377 0 75.9027 0C66.6231 0 60.0884 5.00876 60.0483 12.1698C59.9713 17.4532 64.727 20.3877 68.2839 22.1493C71.9194 23.9495 73.1552 25.1244 73.1552 26.729C73.1182 29.1933 70.2175 30.3293 67.512 30.3293C63.7604 30.3293 61.7502 29.7436 58.6954 28.3726L57.458 27.7848L56.1431 36.0423C58.347 37.0586 62.4074 37.9605 66.6231 38C76.4829 38 82.9019 33.0688 82.978 25.4375C83.0155 21.2501 80.5043 18.0414 75.0903 15.4195C71.8037 13.7364 69.791 12.6015 69.791 10.8794C69.8295 9.3138 71.4934 7.71027 75.2034 7.71027C78.2582 7.63173 80.5028 8.37498 82.2031 9.11876L83.053 9.50937L84.331 1.56608Z" fill="#00579F"/>
<path d="M96.8201 24.4204C97.594 22.3071 100.572 14.1282 100.572 14.1282C100.533 14.2068 101.344 11.976 101.808 10.6065L102.465 13.7761C102.465 13.7761 104.244 22.5812 104.631 24.4204C103.162 24.4204 98.6762 24.4204 96.8201 24.4204ZM108.419 0.666992H101.151C98.9095 0.666992 97.2066 1.33171 96.2395 3.71906L82.2817 37.4515H92.1415C92.1415 37.4515 93.7648 32.9113 94.1137 31.9335C95.1953 31.9335 104.787 31.9335 106.178 31.9335C106.448 33.225 107.3 37.4515 107.3 37.4515H116L108.419 0.666992Z" fill="#00579F"/>
<path d="M33.0212 0.666992L23.8186 25.7509L22.813 20.6636C21.1116 14.7935 15.7758 8.41575 9.82129 5.24458L18.2505 37.413H28.1874L42.9576 0.666992H33.0212Z" fill="#00579F"/>
<path d="M15.2732 0.666992H0.154669L0 1.41024C11.7934 4.46283 19.604 11.821 22.813 20.6651L19.5264 3.75911C18.9853 1.40972 17.3225 0.74449 15.2732 0.666992Z" fill="#FAA61A"/>
</g>
<defs>
<clipPath id="clip0">
<rect width="116" height="38" fill="white"/>
</clipPath>
</defs>
</svg>
