<?xml version="1.0" encoding="utf-8"?>
<!-- Generator: Adobe Illustrator 25.0.0, SVG Export Plug-In . SVG Version: 6.00 Build 0)  -->
<svg version="1.1" id="Layer_1" xmlns="http://www.w3.org/2000/svg" xmlns:xlink="http://www.w3.org/1999/xlink" x="0px" y="0px"
	 viewBox="0 0 30.2 30.3" style="enable-background:new 0 0 30.2 30.3;" xml:space="preserve">
<style type="text/css">
	.st0{fill-rule:evenodd;clip-rule:evenodd;fill:#FFFFFF;}
</style>
<path class="st0" d="M15.9,0c3.7,0.2,7.2,1.7,9.9,4.4c2.8,2.8,4.4,6.6,4.4,10.6c0,8.3-6.7,15-15,15c-3.1,0-5.6-1-7.2-1.8l-8,2.1
	l2.1-7.8c-1.3-2.3-2-4.9-2-7.5c0-8.3,6.7-15,15-15H15.9z M8.3,25.5l0.5,0.3c1.9,1.1,4.1,1.7,6.4,1.7l0,0c6.9,0,12.5-5.6,12.5-12.5
	c0-3.3-1.3-6.5-3.7-8.8c-2.4-2.4-5.5-3.7-8.8-3.7C8.3,2.5,2.7,8.1,2.7,15c0,2.4,0.7,4.7,1.9,6.6l0.3,0.5l-1.3,4.6L8.3,25.5z
	 M22.7,18.6c-0.1-0.2-0.3-0.3-0.7-0.4c-0.4-0.2-2.2-1.1-2.6-1.2c-0.3-0.1-0.6-0.2-0.8,0.2c-0.2,0.4-1,1.2-1.2,1.5S17,19,16.6,18.8
	c-0.4-0.2-1.6-0.6-3-1.9c-1.1-1-1.9-2.2-2.1-2.6c-0.2-0.4,0-0.6,0.2-0.8s0.4-0.4,0.6-0.7c0.2-0.2,0.3-0.4,0.4-0.6
	c0.1-0.3,0.1-0.5,0-0.7s-0.8-2-1.2-2.8c-0.3-0.7-0.6-0.6-0.8-0.6s-0.5,0-0.7,0c-0.3,0-0.7,0.1-1,0.5s-1.3,1.3-1.3,3.1
	s1.3,3.6,1.5,3.9c0.2,0.3,2.6,4,6.4,5.7c0.9,0.4,1.6,0.6,2.1,0.8c0.9,0.3,1.7,0.2,2.4,0.1c0.7-0.1,2.2-0.9,2.5-1.8
	C22.8,19.5,22.8,18.7,22.7,18.6z"/>
</svg>
