<svg width="38" height="37" viewBox="0 0 38 37" fill="none" xmlns="http://www.w3.org/2000/svg">
<path fill-rule="evenodd" clip-rule="evenodd" d="M20.4792 5.08195C23.7542 5.24291 26.806 6.59345 29.1368 8.92588C31.6231 11.4137 32.9916 14.7207 32.9903 18.2375C32.9873 25.4948 27.0793 31.3996 19.8215 31.3996C17.0923 31.3996 14.9234 30.5611 13.523 29.7976L6.54199 31.6279L8.41027 24.8073C7.25786 22.8112 6.65146 20.547 6.65241 18.2271C6.65533 10.97 12.5629 5.06567 19.8213 5.06567L20.4792 5.08195ZM13.8464 27.4148L14.2462 27.6518C15.9267 28.6486 17.853 29.176 19.817 29.1767H19.8215C25.8543 29.1767 30.7644 24.269 30.7668 18.2367C30.7679 15.3136 29.6305 12.565 27.564 10.4971C25.4974 8.4292 22.7494 7.2897 19.8258 7.28875C13.7884 7.28875 8.87824 12.196 8.87584 18.2278C8.87501 20.295 9.45366 22.3082 10.5493 24.0499L10.8096 24.4639L9.70383 28.5009L13.8464 27.4148ZM26.4558 21.3674C26.3736 21.2302 26.1543 21.1479 25.8252 20.9833C25.4962 20.8187 23.8785 20.023 23.5768 19.9132C23.2752 19.8036 23.0558 19.7487 22.8365 20.0779C22.6172 20.4071 21.9866 21.1479 21.7946 21.3674C21.6027 21.5869 21.4107 21.6144 21.0818 21.4498C20.7527 21.2852 19.6925 20.9378 18.4357 19.8174C17.4575 18.9453 16.7971 17.8684 16.6051 17.5391C16.4133 17.2099 16.5847 17.0318 16.7494 16.8679C16.8974 16.7205 17.0785 16.4837 17.243 16.2917C17.4075 16.0997 17.4623 15.9624 17.5721 15.743C17.6817 15.5235 17.6269 15.3315 17.5446 15.1669C17.4623 15.0022 16.8043 13.3834 16.5301 12.7249C16.263 12.0836 15.9917 12.1704 15.7898 12.1603C15.5981 12.1508 15.3785 12.1487 15.1592 12.1487C14.9398 12.1487 14.5833 12.231 14.2817 12.5603C13.9801 12.8895 13.13 13.6852 13.13 15.3039C13.13 16.9228 14.3091 18.4865 14.4736 18.7061C14.6382 18.9257 16.7939 22.2474 20.0946 23.6721C20.8797 24.011 21.4926 24.2133 21.9705 24.3649C22.7587 24.6152 23.476 24.5799 24.043 24.4952C24.6752 24.4008 25.9897 23.6996 26.2639 22.9314C26.5381 22.163 26.5381 21.5046 26.4558 21.3674Z" fill="white"/>
</svg>
